<svg xmlns="http://www.w3.org/2000/svg" viewBox="0 0 1052.28 523.33"><defs><style>.cls-1{fill:#fff;}.cls-2{fill:#e01e1e;}.cls-3{fill:#3969e2;}.cls-4{fill:#fcf50b;}</style></defs><title>Asset 1</title><g id="Layer_2" data-name="Layer 2"><g id="Layer_3" data-name="Layer 3"><path d="M1052.28,148.4v65.36a1.66,1.66,0,0,1-1.66,1.66h-4.94v-1.66h4.94V148.4h-11.9v-1.66h11.9A1.66,1.66,0,0,1,1052.28,148.4Z"/><polygon points="1050.62 148.4 1050.62 213.76 1045.68 213.76 1045.68 212.1 1048.96 212.1 1048.96 150.06 1038.72 150.06 1038.72 148.4 1050.62 148.4"/><path class="cls-1" d="M1049,150.06v62h-3.28V153a.56.56,0,0,0-.55-.55h-6.41v-2.37Z"/><path d="M1045.68,215.42v2.92a.56.56,0,0,1-.55.55h-6.41v-.55h6.41v-2.92Z"/><rect x="1045.13" y="213.76" width="0.55" height="1.66"/><rect x="1045.13" y="212.1" width="0.55" height="1.66"/><path class="cls-1" d="M1045.68,153V212.1h-.55V153h-6.41v-.55h6.41A.56.56,0,0,1,1045.68,153Z"/><polygon points="1045.13 215.42 1045.13 218.35 1038.72 218.35 1038.72 217.79 1044.58 217.79 1044.58 215.42 1045.13 215.42"/><rect x="1044.58" y="213.76" width="0.55" height="1.66"/><rect x="1044.58" y="212.1" width="0.55" height="1.66"/><polygon class="cls-1" points="1045.13 152.99 1045.13 212.1 1044.58 212.1 1044.58 153.54 1038.72 153.54 1038.72 152.99 1045.13 152.99"/><rect x="1038.72" y="215.42" width="5.86" height="2.37"/><rect x="1038.72" y="213.76" width="5.86" height="1.66"/><rect x="1038.72" y="212.1" width="5.86" height="1.66"/><polygon class="cls-1" points="1044.58 153.54 1044.58 212.1 1038.72 212.1 1038.72 203.67 1041.45 203.67 1041.45 157.74 1038.72 157.74 1038.72 153.54 1044.58 153.54"/><polygon points="1041.45 157.74 1041.45 203.67 1038.72 203.67 1038.72 202.01 1039.79 202.01 1039.79 159.4 1038.72 159.4 1038.72 157.74 1041.45 157.74"/><rect x="1038.72" y="159.4" width="1.07" height="42.61"/><path d="M1038.72,218.9v125a24.39,24.39,0,0,1-1.41,8.79,15,15,0,0,1-4.2,6l-52,43.19a13.59,13.59,0,0,1-5,2.79,22.19,22.19,0,0,1-7.4,1.2H907.18q-10,0-14.2-4.4c-2.79-2.93-4.2-7.59-4.2-14V281.92L865.2,301.51a21.42,21.42,0,0,1-7.4,4.2,30.7,30.7,0,0,1-9.79,1.4h-5.2v36.79a24.41,24.41,0,0,1-1.4,8.79,14.85,14.85,0,0,1-4.2,6l-52,43.19a13.56,13.56,0,0,1-5,2.79,22.1,22.1,0,0,1-7.4,1.2H713.28c-6.39,0-11.06-1.46-14-4.4s-4.4-7.59-4.4-14V128.4a24.23,24.23,0,0,1,1.4-8.8,14.75,14.75,0,0,1,4.2-6L752.06,70a15.66,15.66,0,0,1,5.4-2.6,26.12,26.12,0,0,1,7.39-1h64.37q7.59,0,12.59,3.2t9.4,10.79l27.19,50L882,124c1.06-1.87,2.2-3.67,3.4-5.4a20.24,20.24,0,0,1,3.8-4.2l51.57-43.18a22.41,22.41,0,0,1,14.79-4.8h64.77q9.58,0,14,4.4t4.41,14v61.93h-4V84.82c0-5-1.13-8.73-3.39-11s-5.94-3.4-11-3.4H955.55a18.69,18.69,0,0,0-10.6,2.8q-4.19,2.79-7.79,9.19L902,146.74H883.12l-35.5-64.32q-3.6-6.4-7.8-9.19a18.69,18.69,0,0,0-10.6-2.8H764.85q-7.59,0-11,3.4c-2.27,2.26-3.4,5.94-3.4,11v61.93h-.9a1.66,1.66,0,0,0-1.66,1.66v4h-3.83a.55.55,0,0,0-.55.55v65.36a.55.55,0,0,0,.55.55h6.39v125q0,7.59,3.4,11t11,3.39h59.58q7.59,0,11-3.39t3.4-11v-125h8.53l15.07,27.84q3.59,6.79,8.59,9.79t12.59,3h16q7.59,0,12.59-3t8.59-9.79l15.07-27.84h8.52v125q0,7.59,3.4,11c2.26,2.26,5.94,3.39,11,3.39h61.57q7.59,0,11-3.39t3.39-11v-125Z"/><rect x="1034.71" y="218.35" width="4.01" height="0.55"/><rect x="1034.71" y="217.79" width="4.01" height="0.55"/><rect x="1034.71" y="215.42" width="4.01" height="2.37"/><rect x="1034.71" y="213.76" width="4.01" height="1.66"/><rect x="1034.71" y="212.1" width="4.01" height="1.66"/><rect class="cls-1" x="1034.71" y="203.67" width="4.01" height="8.43"/><rect x="1034.71" y="202.01" width="4.01" height="1.66"/><polygon points="1038.72 159.4 1038.72 202.01 1034.71 202.01 1034.71 200.35 1038.13 200.35 1038.13 161.06 1034.71 161.06 1034.71 159.4 1038.72 159.4"/><rect x="1034.71" y="157.74" width="4.01" height="1.66"/><rect class="cls-1" x="1034.71" y="153.54" width="4.01" height="4.2"/><rect class="cls-1" x="1034.71" y="152.99" width="4.01" height="0.55"/><rect class="cls-1" x="1034.71" y="152.43" width="4.01" height="0.55"/><rect class="cls-1" x="1034.71" y="150.06" width="4.01" height="2.37"/><rect x="1034.71" y="148.4" width="4.01" height="1.66"/><rect x="1034.71" y="146.74" width="4.01" height="1.66"/><rect class="cls-2" x="1034.71" y="161.06" width="3.42" height="39.29"/><path class="cls-1" d="M1034.71,218.9v125q0,7.59-3.39,11t-11,3.39H958.75c-5.06,0-8.74-1.13-11-3.39s-3.4-5.94-3.4-11v-125Z"/><rect x="944.36" y="218.35" width="90.35" height="0.55"/><rect x="944.36" y="217.79" width="90.35" height="0.55"/><rect x="944.36" y="215.42" width="90.35" height="2.37"/><rect x="944.36" y="213.76" width="90.35" height="1.66"/><rect x="944.36" y="212.1" width="90.35" height="1.66"/><rect class="cls-1" x="944.36" y="203.67" width="90.35" height="8.43"/><polygon points="1034.71 202.01 1034.71 203.67 944.36 203.67 944.36 203.16 944.08 203.67 926.62 203.67 926.62 157.74 1034.71 157.74 1034.71 159.4 928.28 159.4 928.28 202.01 1034.71 202.01"/><polygon points="1034.71 200.35 1034.71 202.01 928.28 202.01 928.28 159.4 1034.71 159.4 1034.71 161.06 929.94 161.06 929.94 200.35 1034.71 200.35"/><rect class="cls-2" x="929.94" y="161.06" width="104.77" height="39.29"/><path class="cls-1" d="M1034.71,153.54v4.2H926.62v45.93h17.46l-4.56,8.43H919.86l-18.33-31.75a1.66,1.66,0,0,0-2.88,0L895.39,186l-.31-.53a.58.58,0,0,0-1,0L878.75,212.1h-35.1l-4.56-8.43h34.66V157.74H758.9v45.93h79.91v8.43H751.23V153.54H887.85a5,5,0,0,0,2.95.84h3.6a5,5,0,0,0,2.95-.84Z"/><path class="cls-1" d="M1034.71,153v.55H897.34A4.41,4.41,0,0,0,898,153Z"/><path class="cls-1" d="M1034.71,152.43V153H898l.19-.2a4.46,4.46,0,0,0,.29-.35Z"/><path class="cls-1" d="M1034.71,150.06v2.37H898.48a22.76,22.76,0,0,0,1.66-2.37Z"/><path d="M1034.71,148.4v1.66H900.14c.31-.5.64-1.05,1-1.66Z"/><path d="M1034.71,146.74v1.66H901.12l.45-.81.47-.85Z"/><path class="cls-1" d="M1034.71,84.82v61.93H902l35.13-64.32q3.59-6.4,7.79-9.19a18.69,18.69,0,0,1,10.6-2.8h64.77q7.59,0,11,3.4C1033.58,76.09,1034.71,79.77,1034.71,84.82Z"/><path d="M1022.8,489.29a23.72,23.72,0,0,1,1.21,8.16q0,15.35-18.53,15.35T987,497.45v-9.31h7.66v9.76a7.42,7.42,0,0,0,2.75,6.13q2.74,2.19,8.12,2.19t8.11-2.19a7.24,7.24,0,0,0,2.75-6,18.21,18.21,0,0,0-.82-6,14,14,0,0,0-3.34-4.77l-19.3-18.85a20,20,0,0,1-4.66-6.63A22.73,22.73,0,0,1,987,453.6q0-7.34,4.54-11.34t13.76-4q17.64,0,17.65,15.35v9.32h-7.67v-9.76a7.64,7.64,0,0,0-2.58-6.15q-2.57-2.19-7.73-2.19T997.2,447a7.51,7.51,0,0,0-2.58,6,18.88,18.88,0,0,0,.78,6,11.89,11.89,0,0,0,3.4,4.61l19.62,18.86A21.65,21.65,0,0,1,1022.8,489.29Z"/><path d="M968.86,491.43v6q0,7.34-4.5,11.35t-13.49,4q-9,0-13.59-4t-4.61-11.35V453.6q0-7.34,4.5-11.34t13.49-4q9,0,13.59,4t4.61,11.34v24.12h-28.5v19.73q0,8.77,10.42,8.77t10.41-8.77v-6Zm-7.67-20.29V453.6q0-8.77-10.41-8.77t-10.42,8.77v17.54Z"/><polygon points="944.36 218.35 944.36 218.9 935.84 218.9 936.14 218.35 944.36 218.35"/><polygon points="944.36 217.79 944.36 218.35 936.14 218.35 936.44 217.79 944.36 217.79"/><polygon points="944.36 215.42 944.36 217.79 936.44 217.79 937.72 215.42 944.36 215.42"/><polygon points="944.36 213.76 944.36 215.42 937.72 215.42 938.62 213.76 944.36 213.76"/><polygon points="944.36 212.1 944.36 213.76 938.62 213.76 939.52 212.1 944.36 212.1"/><polygon class="cls-1" points="944.36 203.67 944.36 212.1 939.52 212.1 944.08 203.67 944.36 203.67"/><polygon points="944.36 203.16 944.36 203.67 944.08 203.67 944.36 203.16"/><path d="M939.52,212.1l-.9,1.66H918.91l-18.81-32.58-3.75,6.5-1-1.66,3.27-5.67a1.66,1.66,0,0,1,2.88,0l18.33,31.75Z"/><path d="M938.62,213.76l-.9,1.66H918.91a1.63,1.63,0,0,1-1.44-.83L900.09,184.5l-2.79,4.84-1-1.66,3.75-6.5,18.81,32.58Z"/><path d="M937.72,215.42l-1.28,2.37H913.73L897.3,189.34l2.79-4.84,17.38,30.09a1.63,1.63,0,0,0,1.44.83Z"/><polygon points="936.44 217.79 936.14 218.35 913.4 218.35 896.98 189.9 897.3 189.34 913.73 217.79 936.44 217.79"/><path d="M936.14,218.35l-.3.55H913.4a.56.56,0,0,1-.48-.28l-16.27-28.17.32-.55,16.42,28.45Z"/><path class="cls-1" d="M935.84,218.9l-15.07,27.84q-3.59,6.79-8.59,9.79t-12.59,3h-16q-7.61,0-12.59-3t-8.59-9.79L847.34,218.9h28.45a.54.54,0,0,0,.48-.28l1.85-3.2h3.18a1.66,1.66,0,0,0,1.44-.83l13.93-24.14,16.27,28.17a.56.56,0,0,0,.48.28Z"/><rect x="904.73" y="439.9" width="7.67" height="71.26"/><path d="M902,146.74l-.47.85-.45.81H884l-.45-.81-.48-.85Z"/><path d="M884,148.4h17.08c-.34.61-.68,1.16-1,1.66H885C884.72,149.57,884.39,149,884,148.4Z"/><path class="cls-1" d="M885,150.06h15.1a22.76,22.76,0,0,1-1.66,2.37H886.69A24.58,24.58,0,0,1,885,150.06Z"/><path class="cls-1" d="M898.48,152.43a4.46,4.46,0,0,1-.29.35l-.19.2H887.18l-.19-.2-.3-.35Z"/><path class="cls-1" d="M887.18,153H898a4.41,4.41,0,0,1-.66.55h-9.49A3.92,3.92,0,0,1,887.18,153Z"/><path class="cls-1" d="M887.85,153.54h9.49a5,5,0,0,1-2.95.84h-3.6A5,5,0,0,1,887.85,153.54Z"/><polygon points="896.34 187.68 897.3 189.34 896.98 189.9 896.03 188.24 896.34 187.68"/><polygon points="896.03 188.24 896.98 189.9 896.66 190.45 895.71 188.79 896.03 188.24"/><path d="M895.71,188.79l1,1.66-13.93,24.14a1.66,1.66,0,0,1-1.44.83h-3.18l1-1.66h2.21Z"/><polygon points="895.39 186.02 896.34 187.68 896.03 188.24 895.07 186.57 895.39 186.02"/><polygon points="896.03 188.24 895.71 188.79 894.75 187.13 895.07 186.57 896.03 188.24"/><polygon points="894.75 187.13 895.71 188.79 881.29 213.76 879.08 213.76 880.03 212.1 880.33 212.1 894.75 187.13"/><path class="cls-1" d="M895.39,186l-.32.55-.47-.81L879.4,212.1h-.64l15.36-26.61a.58.58,0,0,1,1,0Z"/><polygon class="cls-1" points="894.6 185.77 895.07 186.57 894.75 187.13 894.6 186.87 880.03 212.1 879.4 212.1 894.6 185.77"/><polygon class="cls-1" points="894.6 186.87 894.75 187.13 880.33 212.1 880.03 212.1 894.6 186.87"/><polygon points="889.38 439.9 873.26 511.16 861.75 511.16 845.64 439.9 853.32 439.9 867.46 502.71 881.71 439.9 889.38 439.9"/><path class="cls-1" d="M887.85,153.54H751.23V153h136A3.92,3.92,0,0,0,887.85,153.54Z"/><path class="cls-1" d="M887,152.79l.19.2h-136v-.55H886.69Z"/><path class="cls-1" d="M886.69,152.43H751.23v-2.37H885A24.58,24.58,0,0,0,886.69,152.43Z"/><path d="M885,150.06H751.23v2.37h-.76v-4H884C884.39,149,884.72,149.57,885,150.06Z"/><path d="M883.59,147.59l.45.81H750.46v-1.66H883.12Z"/><path class="cls-1" d="M847.61,82.42l35.5,64.32H750.46V84.82c0-5,1.13-8.73,3.4-11s5.92-3.4,11-3.4h64.37a18.69,18.69,0,0,1,10.6,2.8Q844,76,847.61,82.42Z"/><polygon points="880.03 212.1 879.08 213.76 878.43 213.76 879.4 212.1 880.03 212.1"/><polygon points="879.4 212.1 878.43 213.76 877.79 213.76 878.75 212.1 879.4 212.1"/><polygon points="879.08 213.76 878.11 215.42 877.47 215.42 878.43 213.76 879.08 213.76"/><polygon points="878.75 212.1 877.79 213.76 844.55 213.76 843.65 212.1 878.75 212.1"/><polygon points="878.43 213.76 877.47 215.42 876.84 215.42 877.79 213.76 878.43 213.76"/><path d="M878.11,215.42l-1.85,3.2a.54.54,0,0,1-.48.28H847.34l-.31-.55h28.76l1.68-2.92Z"/><polygon points="877.79 213.76 876.84 215.42 845.44 215.42 844.55 213.76 877.79 213.76"/><polygon points="877.47 215.42 875.79 218.35 847.03 218.35 846.73 217.79 875.47 217.79 876.84 215.42 877.47 215.42"/><polygon points="876.84 215.42 875.47 217.79 846.73 217.79 845.44 215.42 876.84 215.42"/><path d="M873.75,157.74v45.93H839.09l-.28-.51v.51H758.9V157.74ZM872.09,202V159.4H760.56V202Z"/><path d="M872.09,159.4V202H760.56V159.4Zm-1.66,41V161.06H762.22v39.29Z"/><rect class="cls-3" x="762.22" y="161.06" width="108.2" height="39.29"/><polygon points="847.34 218.9 838.81 218.9 838.81 218.35 847.03 218.35 847.34 218.9"/><polygon points="846.73 217.79 847.03 218.35 838.81 218.35 838.81 217.79 846.73 217.79"/><polygon points="845.44 215.42 846.73 217.79 838.81 217.79 838.81 215.42 845.44 215.42"/><polygon points="844.55 213.76 845.44 215.42 838.81 215.42 838.81 213.76 844.55 213.76"/><polygon points="843.65 212.1 844.55 213.76 838.81 213.76 838.81 212.1 843.65 212.1"/><polygon class="cls-1" points="839.09 203.67 843.65 212.1 838.81 212.1 838.81 203.67 839.09 203.67"/><polygon points="838.81 203.16 839.09 203.67 838.81 203.67 838.81 203.16"/><path class="cls-1" d="M838.81,218.9v125q0,7.59-3.4,11t-11,3.39H764.85q-7.59,0-11-3.39t-3.4-11v-125Z"/><rect x="750.46" y="218.35" width="88.35" height="0.55"/><rect x="750.46" y="217.79" width="88.35" height="0.55"/><rect x="750.46" y="215.42" width="88.35" height="2.37"/><rect x="750.46" y="213.76" width="88.35" height="1.66"/><polygon points="838.81 212.1 838.81 213.76 750.46 213.76 750.46 153.54 751.23 153.54 751.23 212.1 838.81 212.1"/><path d="M831.93,453.6v43.85q0,7.34-4.66,11.35t-13.92,4q-9.27,0-14-4t-4.72-11.35V453.6q0-7.34,4.66-11.34t13.92-4q9.27,0,14,4T831.93,453.6Zm-7.67,43.85V453.6q0-8.77-11-8.77t-11,8.77v43.85q0,8.77,11,8.77T824.26,497.45Z"/><polygon points="774.38 439.9 774.38 511.16 766.71 511.16 766.71 452.18 753.88 500.2 746.75 500.2 733.93 452.18 733.93 511.16 726.25 511.16 726.25 439.9 737.76 439.9 750.26 486.93 762.87 439.9 774.38 439.9"/><rect x="750.46" y="152.99" width="0.76" height="0.55"/><rect x="750.46" y="152.43" width="0.76" height="0.55"/><path d="M750.46,218.35v.55h-6.39a.55.55,0,0,1-.55-.55V153a.55.55,0,0,1,.55-.55h3.83V153h-3.84v65.36Z"/><polygon points="750.46 217.79 750.46 218.35 744.06 218.35 744.06 152.99 747.9 152.99 747.9 153.54 744.63 153.54 744.63 217.79 750.46 217.79"/><path d="M750.46,215.42v2.37h-5.84V153.54h3.28v60.22a1.66,1.66,0,0,0,1.66,1.66Z"/><path d="M750.46,213.76v1.66h-.9a1.66,1.66,0,0,1-1.66-1.66V153.54h1.66v60.22Z"/><rect x="749.56" y="153.54" width="0.9" height="60.22"/><rect x="749.56" y="152.99" width="0.9" height="0.55"/><rect x="749.56" y="152.43" width="0.9" height="0.55"/><rect x="749.56" y="148.4" width="0.9" height="4.03"/><path d="M750.46,146.74v1.66h-.9v4H747.9v-4a1.66,1.66,0,0,1,1.66-1.66Z"/><rect x="747.9" y="152.99" width="1.66" height="0.55"/><rect x="747.9" y="152.43" width="1.66" height="0.55"/><polygon points="680.75 499.1 680.75 509.51 675.38 523.33 671.87 522.67 673.52 511.16 670.88 510.18 670.88 499.1 680.75 499.1"/><path d="M665.7,220.35V343.89a24.41,24.41,0,0,1-1.4,8.79,15,15,0,0,1-4.2,6l-52,43.19a13.56,13.56,0,0,1-5,2.79,22.15,22.15,0,0,1-7.4,1.2H469.8q-52.37,0-77.35-27.18t-25-70.36V195.57q0-22,6.4-38a68.73,68.73,0,0,1,18.78-26.79l51.58-43.58Q456.6,76.84,476,71.63t45.37-5.19h100q9.58,0,14,4.4t4.4,14V133.2a24.35,24.35,0,0,1-1.41,8.79,14.89,14.89,0,0,1-4.2,6l-52,43.18a13.44,13.44,0,0,1-5,2.79,22.19,22.19,0,0,1-7.4,1.21h-52v57.56a7.26,7.26,0,0,1,1.4-1.79l1.79-1.79,51.57-43.59A15.75,15.75,0,0,1,578,203a26.15,26.15,0,0,1,7.4-1h62q9.58,0,14,4.4C664.24,209.3,665.7,213.95,665.7,220.35Zm-4,123.54V220.35q0-7.59-3.4-11t-11-3.4h-62q-7.61,0-11,3.4t-3.4,11v62.37H532.17q-9.2,0-13.79-4.8t-4.61-14.79V167.58q0-10,6-15t18.39-5h83.15q7.59,0,11-3.4t3.4-11V84.82c0-5-1.14-8.73-3.4-11s-5.94-3.4-11-3.4h-100q-50,0-74.16,20T423,152V276.73q0,41.58,24.19,61.56t74.16,20H647.32q7.59,0,11-3.39T661.7,343.89Z"/><path class="cls-1" d="M661.7,220.35V343.89q0,7.59-3.4,11t-11,3.39H521.37q-50,0-74.16-20T423,276.73V152q0-41.58,24.19-61.57t74.16-20h100q7.59,0,11,3.4c2.26,2.26,3.4,5.94,3.4,11V133.2q0,7.59-3.4,11t-11,3.4H538.17q-12.41,0-18.39,5t-6,15v95.55q0,10,4.61,14.79t13.79,4.8H571V220.35q0-7.59,3.4-11t11-3.4h62q7.59,0,11,3.4T661.7,220.35Zm-17.64,38.24a11.94,11.94,0,1,0-6.07,1.67A12,12,0,0,0,644.06,258.59Zm-22.92-20.44a12,12,0,0,0-3.26-23.49,11.76,11.76,0,0,0-6.06,1.68,12,12,0,1,0,9.31,21.8Zm0,43.48a12,12,0,1,0-6.1,1.68A12,12,0,0,0,621.17,281.62Zm-22.61-21.71a12,12,0,0,0-3.27-23.48,11.76,11.76,0,0,0-6.06,1.68,12,12,0,0,0,3.24,23.48A11.81,11.81,0,0,0,598.56,259.92Zm-95.72-8.28v-7.16a7.8,7.8,0,0,0-7.8-7.8h-9.32a4.48,4.48,0,0,1-4.47-4.47v-9.34a7.8,7.8,0,0,0-7.8-7.79h-7.16a7.69,7.69,0,0,0-5.77,2.57h0a7.81,7.81,0,0,0-5.71,7.51v9.32a4.4,4.4,0,0,1-.58,2.18h-9.53a7.69,7.69,0,0,0-5.76,2.57,7.81,7.81,0,0,0-5.73,7.51v7.16a7.8,7.8,0,0,0,7.8,7.8h9.32a4.48,4.48,0,0,1,4.47,4.47v9.32a7.8,7.8,0,0,0,7.8,7.8h7.16a15.88,15.88,0,0,0,11.49-10.08V263.9a4.4,4.4,0,0,1,.58-2.18h9.52a15.88,15.88,0,0,0,11.49-10.08Z"/><path d="M651.59,489.29a23.46,23.46,0,0,1,1.21,8.16q0,15.35-18.53,15.35t-18.53-15.35v-9.31h7.67v9.76a7.41,7.41,0,0,0,2.74,6.13q2.74,2.19,8.12,2.19t8.11-2.19a7.24,7.24,0,0,0,2.75-6,18.21,18.21,0,0,0-.82-6,13.87,13.87,0,0,0-3.34-4.77l-19.3-18.85a20,20,0,0,1-4.65-6.63,22.71,22.71,0,0,1-1.26-8.17q0-7.34,4.55-11.34c3-2.67,7.62-4,13.75-4q17.66,0,17.65,15.35v9.32H644v-9.76a7.64,7.64,0,0,0-2.58-6.15c-1.72-1.46-4.29-2.19-7.73-2.19s-6,.73-7.73,2.19a7.51,7.51,0,0,0-2.57,6,18.93,18.93,0,0,0,.76,6,12,12,0,0,0,3.4,4.61l19.62,18.86A21.65,21.65,0,0,1,651.59,489.29Z"/><path d="M652.79,247.08a12,12,0,0,1-8.73,11.51l.22-.13a1.64,1.64,0,0,0,.69-1.95,10.31,10.31,0,0,0-4.16-19.74,10.09,10.09,0,0,0-3.93.8,1.66,1.66,0,0,0-1.89-.85l-.23.07a11.94,11.94,0,0,1,18,10.31Z"/><path d="M651.13,247.08a10.35,10.35,0,0,1-6.16,9.42.42.42,0,0,0,0-.11,1.66,1.66,0,0,0-1.95-1,8.65,8.65,0,1,0-6.71-15.71,1.67,1.67,0,0,0,.65-2.07.45.45,0,0,0-.06-.1,10.09,10.09,0,0,1,3.93-.8A10.35,10.35,0,0,1,651.13,247.08Z"/><path class="cls-2" d="M649.47,247.08a8.67,8.67,0,0,1-6.48,8.36,8.89,8.89,0,0,1-2.18.29,8.65,8.65,0,1,1,8.66-8.65Z"/><path d="M645,256.51a1.64,1.64,0,0,1-.69,1.95l-.22.13-.23.07a11.88,11.88,0,0,1-3,.4,11.52,11.52,0,0,1-3.29-.47H638a10.3,10.3,0,0,0,5.42-1.55A11.8,11.8,0,0,0,645,256.51Z"/><path d="M644.94,256.4a.42.42,0,0,1,0,.11,11.8,11.8,0,0,1-1.56.54,10.1,10.1,0,0,1-2.6.34,10.3,10.3,0,0,1-5.4-19.08,9.7,9.7,0,0,1,1.47-.75.45.45,0,0,1,.06.1,1.67,1.67,0,0,1-.65,2.07,8.64,8.64,0,0,0,4.53,16,8.89,8.89,0,0,0,2.18-.29A1.66,1.66,0,0,1,644.94,256.4Z"/><path d="M643.83,258.66l.23-.07a12,12,0,1,1-9.31-21.82l-.22.13a12.07,12.07,0,0,0-4.36,4.7,10.31,10.31,0,0,0,7.35,17,11.52,11.52,0,0,0,3.29.47A11.88,11.88,0,0,0,643.83,258.66Z"/><path d="M640.81,257.39a10.1,10.1,0,0,0,2.6-.34A10.3,10.3,0,0,1,638,258.6h-.48a12,12,0,0,1-8.68-11.51,11.86,11.86,0,0,1,1.33-5.48,10.4,10.4,0,0,1,5.24-3.29,10.3,10.3,0,0,0,5.4,19.08Z"/><path d="M636.88,237.56a9.7,9.7,0,0,0-1.47.75,10.4,10.4,0,0,0-5.24,3.29,12.07,12.07,0,0,1,4.36-4.7l.22-.13.23-.07A1.66,1.66,0,0,1,636.88,237.56Z"/><path d="M628.84,247.08a12,12,0,0,0,8.68,11.51,10.3,10.3,0,0,1-7.35-17A11.86,11.86,0,0,0,628.84,247.08Z"/><path d="M629.87,226.64a12,12,0,0,1-8.73,11.51l.22-.13a1.62,1.62,0,0,0,.68-1.95,10.31,10.31,0,0,0-4.15-19.74,10.09,10.09,0,0,0-3.93.8,1.67,1.67,0,0,0-1.89-.85l-.23.08a11.76,11.76,0,0,1,6.06-1.68A12,12,0,0,1,629.87,226.64Z"/><path d="M629.87,270.13a12,12,0,0,1-8.69,11.49l.19-.11a1.64,1.64,0,0,0,.68-2,10.31,10.31,0,0,0-4.15-19.74,10.09,10.09,0,0,0-3.93.8,1.66,1.66,0,0,0-1.89-.85l-.23.07a11.94,11.94,0,0,1,18,10.31Z"/><path d="M628.2,226.64a10.34,10.34,0,0,1-6.17,9.42.32.32,0,0,0,0-.11,1.64,1.64,0,0,0-1.94-1,8.65,8.65,0,1,0-6.71-15.71,1.67,1.67,0,0,0,.65-2.07.45.45,0,0,0-.06-.1,10.09,10.09,0,0,1,3.93-.8,10.36,10.36,0,0,1,10.32,10.32Z"/><path d="M628.2,270.13a10.34,10.34,0,0,1-6.17,9.42.32.32,0,0,0,0-.11,1.65,1.65,0,0,0-1.94-1,8.65,8.65,0,1,0-6.71-15.71,1.67,1.67,0,0,0,.65-2.07.45.45,0,0,0-.06-.1,10.09,10.09,0,0,1,3.93-.8A10.35,10.35,0,0,1,628.2,270.13Z"/><path class="cls-4" d="M626.54,226.64a8.67,8.67,0,0,1-6.48,8.36,8.89,8.89,0,0,1-2.18.29,8.65,8.65,0,1,1,8.66-8.65Z"/><path class="cls-4" d="M626.54,270.13a8.67,8.67,0,0,1-6.48,8.36,8.89,8.89,0,0,1-2.18.29,8.65,8.65,0,1,1,8.66-8.65Z"/><path d="M622,236.06a1.62,1.62,0,0,1-.68,1.95l-.22.13-.23.07a11.94,11.94,0,0,1-3,.4,11.52,11.52,0,0,1-3.29-.47h.48a10.3,10.3,0,0,0,5.42-1.55A10.7,10.7,0,0,0,622,236.06Z"/><path d="M622,279.55a1.64,1.64,0,0,1-.68,2l-.19.11-.27.08a11.94,11.94,0,0,1-3,.4,11.52,11.52,0,0,1-3.29-.47h.48a10.3,10.3,0,0,0,5.42-1.55A10.7,10.7,0,0,0,622,279.55Z"/><path d="M622,279.44a.32.32,0,0,1,0,.11,10.7,10.7,0,0,1-1.55.54,10.1,10.1,0,0,1-2.6.34,10.3,10.3,0,0,1-5.4-19.07,9.75,9.75,0,0,1,1.47-.76.45.45,0,0,1,.06.1,1.67,1.67,0,0,1-.65,2.07,8.64,8.64,0,0,0,4.53,16,8.89,8.89,0,0,0,2.18-.29A1.65,1.65,0,0,1,622,279.44Z"/><path d="M622,236a.32.32,0,0,1,0,.11,10.7,10.7,0,0,1-1.55.54,10.1,10.1,0,0,1-2.6.34,10.3,10.3,0,0,1-5.4-19.08,9.7,9.7,0,0,1,1.47-.75.45.45,0,0,1,.06.1,1.67,1.67,0,0,1-.65,2.07,8.64,8.64,0,0,0,4.53,16,8.89,8.89,0,0,0,2.18-.29A1.64,1.64,0,0,1,622,236Z"/><path d="M620.91,281.7l.27-.08a12,12,0,1,1-9.35-21.8l-.22.13a12.07,12.07,0,0,0-4.37,4.72,10.24,10.24,0,0,0-2.47,6.67,10.34,10.34,0,0,0,9.83,10.3,11.52,11.52,0,0,0,3.29.47A11.94,11.94,0,0,0,620.91,281.7Z"/><path d="M620.91,238.21l.23-.07a12,12,0,1,1-9.31-21.8l-.22.12a12.07,12.07,0,0,0-4.36,4.7,10.31,10.31,0,0,0,7.35,17,11.52,11.52,0,0,0,3.29.47A11.94,11.94,0,0,0,620.91,238.21Z"/><path d="M617.88,237a10.1,10.1,0,0,0,2.6-.34,10.3,10.3,0,0,1-5.42,1.55h-.48a12,12,0,0,1-8.68-11.51,11.86,11.86,0,0,1,1.33-5.48,10.4,10.4,0,0,1,5.24-3.29,10.3,10.3,0,0,0,5.4,19.08Z"/><path d="M617.88,280.44a10.1,10.1,0,0,0,2.6-.34,10.3,10.3,0,0,1-5.42,1.55h-.48a12,12,0,0,1-7.36-17,10.33,10.33,0,0,1,5.25-3.3,10.3,10.3,0,0,0,5.4,19.07Z"/><path d="M614,217.12a9.7,9.7,0,0,0-1.47.75,10.4,10.4,0,0,0-5.24,3.29,12.07,12.07,0,0,1,4.36-4.7l.22-.12.23-.08A1.67,1.67,0,0,1,614,217.12Z"/><path d="M614,260.6a9.75,9.75,0,0,0-1.47.76,10.33,10.33,0,0,0-5.25,3.3A12.07,12.07,0,0,1,611.6,260l.22-.13.23-.07A1.66,1.66,0,0,1,614,260.6Z"/><path d="M605.91,226.64a12,12,0,0,0,8.68,11.51,10.3,10.3,0,0,1-7.35-17A11.86,11.86,0,0,0,605.91,226.64Z"/><path d="M605.91,270.13a12,12,0,0,0,8.68,11.51,10.34,10.34,0,0,1-9.83-10.3,10.24,10.24,0,0,1,2.47-6.67A11.93,11.93,0,0,0,605.91,270.13Z"/><path d="M607.28,248.41a12,12,0,0,1-8.72,11.51,1.3,1.3,0,0,0,.21-.12,1.65,1.65,0,0,0,.69-1.95,10.31,10.31,0,0,0-4.16-19.74,10.09,10.09,0,0,0-3.93.8,1.66,1.66,0,0,0-1.89-.85l-.23.08a11.76,11.76,0,0,1,6.06-1.68A12,12,0,0,1,607.28,248.41Z"/><path d="M605.61,248.41a10.35,10.35,0,0,1-6.16,9.44.4.4,0,0,0,0-.12,1.66,1.66,0,0,0-1.95-1,8.64,8.64,0,0,0-2.17-17,8.51,8.51,0,0,0-4.53,1.31,1.68,1.68,0,0,0,.65-2.07.45.45,0,0,0-.06-.1,10.09,10.09,0,0,1,3.93-.8A10.34,10.34,0,0,1,605.61,248.41Z"/><path class="cls-2" d="M604,248.41a8.65,8.65,0,0,1-6.49,8.36,8.26,8.26,0,0,1-2.17.3,8.64,8.64,0,0,1-4.53-16,8.51,8.51,0,0,1,4.53-1.31A8.66,8.66,0,0,1,604,248.41Z"/><path d="M599.46,257.85a1.65,1.65,0,0,1-.69,1.95,1.3,1.3,0,0,1-.21.12l-.25.08a11.79,11.79,0,0,1-3,.4,11.52,11.52,0,0,1-3.29-.47h.48a65.51,65.51,0,0,0,7-2.09Z"/><path d="M599.41,257.72a.4.4,0,0,1,0,.12,10.39,10.39,0,0,1-1.56.54,10.68,10.68,0,0,1-2.6.34,10.3,10.3,0,0,1-5.4-19.08,9.7,9.7,0,0,1,1.47-.75.45.45,0,0,1,.06.1,1.68,1.68,0,0,1-.65,2.07,8.64,8.64,0,0,0,4.53,16,8.26,8.26,0,0,0,2.17-.3A1.66,1.66,0,0,1,599.41,257.72Z"/><path d="M598.31,260l.25-.08a11.81,11.81,0,0,1-6.08,1.68,12,12,0,0,1-3.24-23.48l-.22.12a12.07,12.07,0,0,0-4.37,4.72,10.19,10.19,0,0,0-2.47,6.66A10.35,10.35,0,0,0,592,259.93a11.52,11.52,0,0,0,3.29.47A11.79,11.79,0,0,0,598.31,260Z"/><path d="M597.65,491.43v6q0,7.34-4.5,11.35t-13.48,4q-9,0-13.6-4t-4.61-11.35V453.6q0-7.34,4.5-11.34t13.49-4q9,0,13.59,4t4.61,11.34v24.12h-28.5v19.73q0,8.77,10.42,8.77T590,497.45v-6ZM590,471.14V453.6q0-8.77-10.41-8.77t-10.42,8.77v17.54Z"/><path d="M595.29,258.73a10.68,10.68,0,0,0,2.6-.34,10.3,10.3,0,0,1-5.42,1.55H592a12,12,0,0,1-7.36-17,10.34,10.34,0,0,1,5.25-3.31,10.3,10.3,0,0,0,5.4,19.08Z"/><path d="M591.36,238.9a9.7,9.7,0,0,0-1.47.75,10.34,10.34,0,0,0-5.25,3.31,12.07,12.07,0,0,1,4.37-4.72l.22-.12.23-.08A1.66,1.66,0,0,1,591.36,238.9Z"/><path d="M583.32,248.41A12,12,0,0,0,592,259.93a10.35,10.35,0,0,1-9.83-10.31,10.19,10.19,0,0,1,2.47-6.66A11.92,11.92,0,0,0,583.32,248.41Z"/><path d="M542.29,453.6v57.56h-7.67V453.6q0-8.77-7.9-8.77a12.09,12.09,0,0,0-8.49,3.73q-3.9,3.72-3.9,7.23v55.37h-7.67V453.6q0-8.77-7.88-8.77a12.39,12.39,0,0,0-8.5,3.57q-3.89,3.55-3.89,7.07v55.7h-7.67V439.9H482l2.74,7a18.19,18.19,0,0,1,6-6.3,14.85,14.85,0,0,1,8.11-2.36q11.08,0,14.15,8,5.25-8,13.81-8Q542.3,438.25,542.29,453.6Z"/><path d="M502.84,244.47v7.16a7.81,7.81,0,0,1-5.71,7.51,5.34,5.34,0,0,0,.4-.48l2.68-3.48-.2,0a6,6,0,0,0,1.17-3.59v-7.16a6.13,6.13,0,0,0-6.13-6.13h-9.32a6.13,6.13,0,0,1-6.13-6.13v-9.32a6.13,6.13,0,0,0-6.13-6.13h-7.16a5.85,5.85,0,0,0-1,.09l.12-.16-4.31.83a5,5,0,0,0-.59.14,7.69,7.69,0,0,1,5.77-2.57h7.16a7.8,7.8,0,0,1,7.8,7.79v9.34a4.48,4.48,0,0,0,4.47,4.47H495A7.8,7.8,0,0,1,502.84,244.47Z"/><path d="M501.18,244.47v7.16a6,6,0,0,1-1.17,3.59l-4.11.8a4.47,4.47,0,0,0,3.62-4.39v-7.16A4.48,4.48,0,0,0,495,240h-9.32a7.8,7.8,0,0,1-7.8-7.8v-9.34a4.48,4.48,0,0,0-4.47-4.46h-7.16a4.42,4.42,0,0,0-3.54,1.75l2.55-3.32a5.85,5.85,0,0,1,1-.09h7.16a6.13,6.13,0,0,1,6.13,6.13v9.32a6.13,6.13,0,0,0,6.13,6.13H495A6.13,6.13,0,0,1,501.18,244.47Z"/><path d="M500.2,255.19l-2.68,3.48a5.34,5.34,0,0,1-.4.48l-.6.14a8.52,8.52,0,0,1-1.48.14h-1a6,6,0,0,0,2.18-1.78,6.07,6.07,0,0,0,3.8-2.43Z"/><path d="M500,255.22a6.07,6.07,0,0,1-3.8,2.43,5.75,5.75,0,0,1-1.16.12h-9.32a6.16,6.16,0,0,0-5.85,4.29l-1.81.35a7.62,7.62,0,0,1,1.47-3.26,7.73,7.73,0,0,1,6.18-3H495a4.55,4.55,0,0,0,.85-.09Z"/><path class="cls-3" d="M499.51,244.47v7.16a4.47,4.47,0,0,1-3.62,4.39,4.55,4.55,0,0,1-.85.09h-9.32a7.73,7.73,0,0,0-6.18,3l-2.68,3.49,1.21-.23a7.44,7.44,0,0,0-.14,1.49v9.32a4.47,4.47,0,0,1-3.62,4.39,4.55,4.55,0,0,1-.85.09h-7.16a4.48,4.48,0,0,1-4.47-4.47V263.9a7.81,7.81,0,0,0-7.8-7.8h-9.34a4.48,4.48,0,0,1-4.47-4.47v-7.16a4.48,4.48,0,0,1,4.47-4.47h7l-.53.69,4.23-.82h.08a7.81,7.81,0,0,0,6.31-7.65v-9.34a4.48,4.48,0,0,1,4.47-4.46h7.16a4.48,4.48,0,0,1,4.47,4.46v9.34a7.8,7.8,0,0,0,7.8,7.8H495A4.48,4.48,0,0,1,499.51,244.47Z"/><path d="M496.52,259.29l.6-.14a7.73,7.73,0,0,1-5.78,2.57h-9.52a4.14,4.14,0,0,1,.35-.54,4.3,4.3,0,0,1,1.28-1.13h7.88a6,6,0,0,0,2.68-.62h1A8.52,8.52,0,0,0,496.52,259.29Z"/><path d="M495,257.77a5.75,5.75,0,0,0,1.16-.12,6,6,0,0,1-2.18,1.78h-8.31a4.33,4.33,0,0,0-2.26.62H482a5.75,5.75,0,0,0-1.16.12,6.11,6.11,0,0,1,4.86-2.4Z"/><path d="M485.72,259.43H494a6,6,0,0,1-2.68.62h-7.88A4.33,4.33,0,0,1,485.72,259.43Z"/><path d="M482,260.05h1.44a4.3,4.3,0,0,0-1.28,1.13,4.14,4.14,0,0,0-.35.54,4.56,4.56,0,0,0-.65.08l-1.3.25a6.11,6.11,0,0,1,1-1.88A5.75,5.75,0,0,1,482,260.05Z"/><path d="M481.16,261.8a4.56,4.56,0,0,1,.65-.08,4.4,4.4,0,0,0-.58,2.18v9.32a7.81,7.81,0,0,1-5.71,7.51,5.34,5.34,0,0,0,.4-.48l2.68-3.48-.2,0a6,6,0,0,0,1.17-3.59V263.9a6,6,0,0,1,.29-1.85Z"/><path d="M478.06,262.41l1.81-.35a6,6,0,0,0-.29,1.85v9.32a6,6,0,0,1-1.17,3.59l-4.11.8a4.47,4.47,0,0,0,3.62-4.39V263.9A7.44,7.44,0,0,1,478.06,262.41Z"/><path class="cls-3" d="M476.86,262.64l2.68-3.49a7.62,7.62,0,0,0-1.47,3.26Z"/><path d="M478.61,276.78l-2.68,3.48a5.34,5.34,0,0,1-.4.48l-.6.14a8.52,8.52,0,0,1-1.48.14h-1a32.76,32.76,0,0,1,6-4.21Z"/><path d="M478.41,276.82a6.13,6.13,0,0,1-3.8,2.44,6.68,6.68,0,0,1-1.16.11h-7.16a6.13,6.13,0,0,1-6.13-6.13V263.9a6.13,6.13,0,0,0-6.13-6.13h-9.34a6.13,6.13,0,0,1-6.13-6.13v-7.16a6.15,6.15,0,0,1,1.27-3.73,6.07,6.07,0,0,1,3.88-2.31l-2.56,3.32a4.41,4.41,0,0,0-.93,2.72v7.16a4.48,4.48,0,0,0,4.47,4.47H454a7.81,7.81,0,0,1,7.8,7.8v9.32a4.48,4.48,0,0,0,4.47,4.47h7.16a4.55,4.55,0,0,0,.85-.09Z"/><path d="M474.93,280.88l.6-.14a7.73,7.73,0,0,1-5.78,2.57h-7.16a7.8,7.8,0,0,1-7.8-7.8v-9.32a4.48,4.48,0,0,0-4.47-4.47H441a7.8,7.8,0,0,1-7.8-7.8v-7.16a7.81,7.81,0,0,1,5.73-7.51,4.06,4.06,0,0,0-.41.48,7.6,7.6,0,0,0-1.15,2.09,6.12,6.12,0,0,0-2.5,4.94v7.16a6.13,6.13,0,0,0,6.13,6.13h9.32a6.13,6.13,0,0,1,6.13,6.13v9.34a6.13,6.13,0,0,0,6.13,6.12h7.16a6,6,0,0,0,2.68-.62h1A8.52,8.52,0,0,0,474.93,280.88Z"/><path d="M473.45,279.36a6.68,6.68,0,0,0,1.16-.11,6.07,6.07,0,0,1-2.18,1.77h-6.15a7.7,7.7,0,0,1-3.89-1,4.74,4.74,0,0,1-.63-.41,2.27,2.27,0,0,1-.38-.29,5.62,5.62,0,0,1-.61-.54l-.17-.17a4.56,4.56,0,0,1-.31-.34l-.06-.08a7.56,7.56,0,0,1-.82-1.22c-.09-.17-.18-.34-.25-.52a3,3,0,0,1-.17-.4,3.46,3.46,0,0,1-.17-.48c-.08-.24-.14-.49-.2-.74s-.09-.52-.11-.78,0-.47,0-.71V263.9a4.6,4.6,0,0,0-.09-.87c0-.11,0-.22-.08-.33a4.47,4.47,0,0,0-1.18-2,3,3,0,0,0-.28-.25h0a1.84,1.84,0,0,0-.34-.25,1.53,1.53,0,0,0-.37-.22,1.79,1.79,0,0,0-.39-.19,1.63,1.63,0,0,0-.39-.14l-.06,0a2.62,2.62,0,0,0-.4-.1,2.84,2.84,0,0,0-.44-.07h-.27a0,0,0,0,1,0,0h-9.53a7.69,7.69,0,0,1-3.88-1,6.37,6.37,0,0,1-.92-.62l-.31-.25a8.44,8.44,0,0,1-.71-.7s0,0,0,0-.2-.23-.3-.37a6.74,6.74,0,0,1-.61-.9l-.2-.35,0-.08a5.94,5.94,0,0,1-.37-.86.16.16,0,0,1,0-.08c0-.12-.09-.24-.12-.37a1.17,1.17,0,0,1-.06-.21,5.73,5.73,0,0,1-.16-.73,4.36,4.36,0,0,1-.07-.53,5.41,5.41,0,0,1,0-.6v-7.25a7.43,7.43,0,0,1,.48-2.66,5.92,5.92,0,0,1,2.46-1.07,6.15,6.15,0,0,0-1.27,3.73v7.16a6.13,6.13,0,0,0,6.13,6.13H454a6.13,6.13,0,0,1,6.13,6.13v9.32a6.13,6.13,0,0,0,6.13,6.13Z"/><path d="M466.28,281h6.15a6,6,0,0,1-2.68.62h-7.16a6.13,6.13,0,0,1-6.13-6.12v-9.34a6.13,6.13,0,0,0-6.13-6.13H441a6.13,6.13,0,0,1-6.13-6.13v-7.16a6.12,6.12,0,0,1,2.5-4.94,7.43,7.43,0,0,0-.48,2.66V245a4.53,4.53,0,0,0-.37,1.77v7.16a4.48,4.48,0,0,0,4.29,4.47,7.69,7.69,0,0,0,3.88,1h9.53a7.8,7.8,0,0,1,3.9,6.74v9.32a4.48,4.48,0,0,0,4.29,4.47A7.7,7.7,0,0,0,466.28,281Z"/><path d="M465.41,216.67l-.12.16a6.14,6.14,0,0,0-3.86,2.3,5.88,5.88,0,0,0-2.47,1.1,7.66,7.66,0,0,1,1.15-2.1,5.34,5.34,0,0,1,.4-.48h0a5,5,0,0,1,.59-.14Z"/><path d="M465.28,216.83l-2.55,3.32a4.4,4.4,0,0,0-.93,2.71v9.34a7.81,7.81,0,0,1-6.31,7.65h-.08A7.65,7.65,0,0,1,454,240h-2.29l1.27-1.66h1a5.75,5.75,0,0,0,1.16-.12,6.13,6.13,0,0,0,5-6v-9.32a6.12,6.12,0,0,1,5.14-6Z"/><path d="M461.76,279.57a4.74,4.74,0,0,0,.63.41,4.48,4.48,0,0,1-4.29-4.47v-9.32a7.8,7.8,0,0,0-3.9-6.74h.25a2.84,2.84,0,0,1,.44.07l.4.1.06,0a2.75,2.75,0,0,1,.39.14,2.5,2.5,0,0,1,.39.19,4,4,0,0,1,.37.22,3.93,3.93,0,0,1,.34.25h0l.28.25a4.47,4.47,0,0,1,1.18,2c0,.11.06.22.08.33a4.6,4.6,0,0,1,.09.87v9.41a5,5,0,0,0,0,.71c0,.27.07.52.11.78s.12.5.2.74a3.46,3.46,0,0,0,.17.48,3,3,0,0,0,.17.4,4.52,4.52,0,0,0,.25.52,7.56,7.56,0,0,0,.82,1.22l.06.08c.1.12.21.23.31.34l.17.17a5.62,5.62,0,0,0,.61.54C461.51,279.39,461.63,279.49,461.76,279.57Z"/><path d="M461.39,279.29a2.27,2.27,0,0,0,.38.29C461.63,279.49,461.51,279.39,461.39,279.29Z"/><path d="M460.61,278.58l.17.17Z"/><path d="M460.3,278.23a4.56,4.56,0,0,0,.31.34C460.51,278.47,460.4,278.36,460.3,278.23Z"/><path d="M460.5,217.65a5.34,5.34,0,0,0-.4.48,7.66,7.66,0,0,0-1.15,2.1,6.09,6.09,0,0,0-2.5,4.93v9.32a6.28,6.28,0,0,1-.21,1.58,4.37,4.37,0,0,1-2,.6,4.4,4.4,0,0,0,.58-2.18v-9.32A7.81,7.81,0,0,1,460.5,217.65Z"/><path d="M461.42,219.13a6.13,6.13,0,0,0-1.27,3.74v9.32a6.13,6.13,0,0,1-5,6,6,6,0,0,0,1.06-2.15,4.41,4.41,0,0,0,1.87-2.09,2.92,2.92,0,0,0,.19-.52c0-.11.07-.22.09-.33a2.77,2.77,0,0,0,.06-.32,1.22,1.22,0,0,0,0-.2c0-.13,0-.27,0-.4v-9.34a7.59,7.59,0,0,1,.47-2.64A5.88,5.88,0,0,1,461.42,219.13Z"/><path d="M460.25,278.16a7.56,7.56,0,0,1-.82-1.22A7.56,7.56,0,0,0,460.25,278.16Z"/><path d="M459.17,276.42c.08.18.17.35.25.52A4.52,4.52,0,0,1,459.17,276.42Z"/><path d="M458.84,275.54a3.46,3.46,0,0,0,.17.48A3.46,3.46,0,0,1,458.84,275.54Z"/><path d="M458.64,274.8c.06.25.12.5.2.74C458.76,275.3,458.7,275.06,458.64,274.8Z"/><path d="M458.53,274c0,.25.07.52.11.78C458.6,274.55,458.55,274.29,458.53,274Z"/><path d="M458.49,273.32c0,.24,0,.48,0,.71A5,5,0,0,1,458.49,273.32Z"/><path d="M459,220.23a7.59,7.59,0,0,0-.47,2.64v.51a4.4,4.4,0,0,0-.38,1.78V234a4.41,4.41,0,0,1-1.87,2.09,6.28,6.28,0,0,0,.21-1.58v-9.32A6.09,6.09,0,0,1,459,220.23Z"/><path d="M458.49,223.37v8.83c0,.13,0,.27,0,.4a1.22,1.22,0,0,1,0,.2,3.25,3.25,0,0,1-.06.32c0,.11-.06.22-.09.33a2.92,2.92,0,0,1-.19.52v-8.81A4.4,4.4,0,0,1,458.49,223.37Z"/><path d="M458.44,232.8a1.22,1.22,0,0,0,0-.2A1.22,1.22,0,0,1,458.44,232.8Z"/><path d="M458.39,233.12a3.25,3.25,0,0,0,.06-.32A2.77,2.77,0,0,1,458.39,233.12Z"/><path d="M458.32,262.7c0,.11.06.22.08.33C458.37,262.92,458.35,262.81,458.32,262.7Z"/><path d="M458.3,233.45c0-.11.07-.22.09-.33C458.36,233.23,458.33,233.34,458.3,233.45Z"/><path d="M457.88,453.6v57.56h-3.29l-2.86-7a18,18,0,0,1-6,6.3,15.07,15.07,0,0,1-8.23,2.36q-15.78,0-15.78-15.35v-11q0-15.35,15.78-15.35H450.2v-18a7.71,7.71,0,0,0-2.52-6.15q-2.52-2.19-7.45-2.19-9.77,0-9.76,8.34v6.47h-7.67v-6q0-7.34,4.33-11.34t13.1-4q8.77,0,13.21,4T457.88,453.6Zm-7.67,42V477.72H437.48q-4.6,0-6.36,2.3a10.52,10.52,0,0,0-1.75,6.47v11a10.5,10.5,0,0,0,1.75,6.47q1.76,2.31,6.36,2.3a12.53,12.53,0,0,0,8.56-3.57C448.66,500.29,450.06,497.93,450.2,495.59Z"/><path d="M457.13,260.7l-.28-.25A3,3,0,0,1,457.13,260.7Z"/><path d="M456.85,260.45a3.93,3.93,0,0,0-.34-.25A1.84,1.84,0,0,1,456.85,260.45Z"/><path d="M456.5,260.19a4,4,0,0,0-.37-.22A1.53,1.53,0,0,1,456.5,260.19Z"/><path d="M456.14,260a2.5,2.5,0,0,0-.39-.19A1.79,1.79,0,0,1,456.14,260Z"/><path d="M455.75,259.78a2.75,2.75,0,0,0-.39-.14A1.63,1.63,0,0,1,455.75,259.78Z"/><path d="M456.24,236.06a6,6,0,0,1-1.06,2.15,5.75,5.75,0,0,1-1.16.12h-1l.86-1.13a4.14,4.14,0,0,0,.35-.54,4.37,4.37,0,0,0,2-.6Z"/><path class="cls-3" d="M455.42,239.86l-4.23.82.53-.69H454A7.65,7.65,0,0,0,455.42,239.86Z"/><path d="M455.31,259.62l-.4-.1A2.62,2.62,0,0,1,455.31,259.62Z"/><path d="M454.91,259.52a2.84,2.84,0,0,0-.44-.07A2.84,2.84,0,0,1,454.91,259.52Z"/><path d="M454.31,259.44h-.1a0,0,0,0,0,0,0Z"/><path d="M454,236.67h.2a4.14,4.14,0,0,1-.35.54l-.86,1.13h-8.32a4.87,4.87,0,0,0-1,.09l.12-.16-4.31.83a5,5,0,0,0-.59.14,7.69,7.69,0,0,1,5.76-2.57Z"/><path d="M453,238.33,451.72,240h-7a4.44,4.44,0,0,0-3.54,1.75l2.56-3.32a4.87,4.87,0,0,1,1-.09Z"/><path d="M443.81,238.27l-.12.16a6.07,6.07,0,0,0-3.88,2.31,5.92,5.92,0,0,0-2.46,1.07,7.6,7.6,0,0,1,1.15-2.09,4.06,4.06,0,0,1,.41-.48,5,5,0,0,1,.59-.14Z"/><path d="M439.88,257.77a6.37,6.37,0,0,0,.92.62,4.48,4.48,0,0,1-4.29-4.47v-7.16a4.53,4.53,0,0,1,.37-1.77v6.74a5.41,5.41,0,0,0,0,.6,4.36,4.36,0,0,0,.07.53,5.35,5.35,0,0,0,.16.73,1.17,1.17,0,0,0,.06.21,2.36,2.36,0,0,0,.12.37.16.16,0,0,0,0,.08,5.94,5.94,0,0,0,.37.86l0,.08a3.66,3.66,0,0,0,.2.35,6.74,6.74,0,0,0,.61.9,2.39,2.39,0,0,0,.3.37s0,0,0,0a6,6,0,0,0,.71.7A2.23,2.23,0,0,0,439.88,257.77Z"/><path d="M439.57,257.51l.31.25A2.23,2.23,0,0,1,439.57,257.51Z"/><path d="M439.57,257.51a6,6,0,0,1-.71-.7A8.44,8.44,0,0,0,439.57,257.51Z"/><path d="M438.54,256.43c.1.13.2.24.3.37A2.39,2.39,0,0,1,438.54,256.43Z"/><path d="M437.73,255.18l.2.35A3.66,3.66,0,0,1,437.73,255.18Z"/><path d="M437.33,254.24a5.94,5.94,0,0,0,.37.86A5.94,5.94,0,0,1,437.33,254.24Z"/><path d="M437.19,253.79c0,.12.08.24.12.37A2.36,2.36,0,0,1,437.19,253.79Z"/><path d="M437,252.85a5.73,5.73,0,0,0,.16.73A5.35,5.35,0,0,1,437,252.85Z"/><path d="M436.88,251.72a5.41,5.41,0,0,0,0,.6A5.41,5.41,0,0,1,436.88,251.72Z"/><path d="M403.6,475v36.18h-3.29l-2.85-7a18,18,0,0,1-6,6.3,14.85,14.85,0,0,1-8.11,2.36q-15.9,0-15.9-15.35V453.6q0-7.34,4.5-11.34t13.49-4q9,0,13.6,4t4.6,11.34v6h-7.67v-6q0-8.77-10.41-8.77T375.1,453.6v43.85a10.42,10.42,0,0,0,1.76,6.47q1.74,2.31,6.41,2.3a12.52,12.52,0,0,0,8.66-3.72q4-3.74,4-7.24v-13.7H383.66V475Z"/><path d="M347.07,255.93v36.79q0,18-5.19,31a54.7,54.7,0,0,1-15.59,21.78L274.7,389.06q-10,8.41-25.18,12.59t-35.58,4.2H60.42q-9.6,0-14-4.4c-2.93-2.93-4.4-7.59-4.4-14V349.38H56.37A12.16,12.16,0,0,0,65.69,345,12.18,12.18,0,0,0,60.8,321.7H43.07a6.49,6.49,0,0,1-1-.08V178.3H56.37A12.16,12.16,0,0,0,65.69,174a12.18,12.18,0,0,0-4.89-23.33H42V128.4a24.47,24.47,0,0,1,1.4-8.8,14.85,14.85,0,0,1,4.2-6L60.13,103a4.34,4.34,0,0,0,.35.28,17.55,17.55,0,0,0-1.47,7,12.65,12.65,0,0,0,3.17,8.07,12.48,12.48,0,0,0,14,3.89,12.69,12.69,0,0,0,7.93-8,13.47,13.47,0,0,0,1.71-.48,12.74,12.74,0,0,0,8.62-12v-1.44a6.1,6.1,0,0,1,1.66,1.56,3.33,3.33,0,0,1,.79,1.9v88a16.16,16.16,0,0,0,.73,4.82V343.89q0,7.59,3.4,11t11,3.39H265.51q39.58,0,58.57-16t19-49.57V255.93q0-29.17-12.39-44.37t-38-17.6a35.72,35.72,0,0,0,17.8-15.79q5.78-10.58,5.79-27.39V131.59q0-31.18-18.79-46.17t-58-15H199.48a28.43,28.43,0,0,0,1.84-4h38.22q41.56,0,61.16,16.19t19.59,49v19.19q0,14-3.8,24a36.43,36.43,0,0,1-11.4,16l-1.2.8q21.59,4.78,32.38,20.59T347.07,255.93Z"/><path class="cls-1" d="M343.07,255.93v36.79q0,33.57-19,49.57t-58.57,16H112q-7.61,0-11-3.39t-3.4-11V196.63a15.9,15.9,0,0,0,13.61,11.2c.49,0,1,.07,1.45.07a15.75,15.75,0,0,0,14.27-9.12A15.81,15.81,0,0,0,138,183.68V171.26a15.45,15.45,0,0,0,8.56,3.59,15.75,15.75,0,0,0,15.73-9.06,15.81,15.81,0,0,0,11.12-15.08V92.51A29.51,29.51,0,0,0,187.81,82a29.69,29.69,0,0,0,11.66-11.58h40.05q39.17,0,58,15t18.79,46.17v19.19q0,16.79-5.79,27.39A35.72,35.72,0,0,1,292.7,194q25.58,2.41,38,17.6T343.07,255.93Zm-88.36,18.39V258.73q0-8-3.8-11.79t-11.38-3.8h-52v47.18h52q7.57,0,11.38-4T254.71,274.32Zm-18-108.75v-11.2q0-8-3.8-12t-11.4-4h-34v43.18h34q7.59,0,11.4-4T236.73,165.58Z"/><polygon points="323.58 499.1 323.58 509.51 318.2 523.33 314.7 522.67 316.34 511.16 313.7 510.18 313.7 499.1 323.58 499.1"/><path d="M294.41,489.29a23.46,23.46,0,0,1,1.21,8.16q0,15.35-18.53,15.35t-18.53-15.35v-9.31h7.67v9.76A7.41,7.41,0,0,0,269,504c1.83,1.46,4.54,2.19,8.12,2.19s6.29-.73,8.12-2.19a7.24,7.24,0,0,0,2.74-6,18.21,18.21,0,0,0-.82-6,13.87,13.87,0,0,0-3.34-4.77l-19.29-18.85a20,20,0,0,1-4.66-6.63,22.71,22.71,0,0,1-1.26-8.17q0-7.34,4.55-11.34t13.75-4q17.66,0,17.65,15.35v9.32h-7.67v-9.76a7.64,7.64,0,0,0-2.58-6.15c-1.72-1.46-4.29-2.19-7.73-2.19s-6,.73-7.72,2.19a7.48,7.48,0,0,0-2.58,6,18.93,18.93,0,0,0,.76,6,12,12,0,0,0,3.4,4.61L290,482.55A21.45,21.45,0,0,1,294.41,489.29Z"/><path d="M254.71,258.73v15.59q0,8-3.8,12t-11.38,4h-52V243.14h52q7.57,0,11.38,3.8T254.71,258.73Z"/><path d="M247.6,452.51v7.13h-7.34v-7.56q0-7.24-6-7.24c-2.41,0-4.62,1.4-6.63,4.16s-3,6.8-3,12.06v50.11h-7.67V439.9h3.29l3.18,8.11q3.5-9.75,11.18-9.76Q247.6,438.25,247.6,452.51Z"/><path d="M236.73,154.38v11.2q0,8-3.8,12t-11.4,4h-34V138.39h34q7.59,0,11.4,4T236.73,154.38Z"/><path d="M203.16,56.17a29.25,29.25,0,0,1-1.85,10.27h-2.37A27.23,27.23,0,0,0,174,28.95a40.59,40.59,0,0,0-64.2-17.28,43.27,43.27,0,0,0-6.59,3.43,42.8,42.8,0,0,1,72.32,11.68A29.55,29.55,0,0,1,203.16,56.17Z"/><path d="M198.94,66.43h2.37a28.43,28.43,0,0,1-1.84,4h-2.56A26,26,0,0,0,198.94,66.43Z"/><path d="M196.92,70.43h2.56A29.69,29.69,0,0,1,187.81,82a27.69,27.69,0,0,0,2.67-4.4A27.15,27.15,0,0,0,196.92,70.43Z"/><path d="M200.95,56.17a27,27,0,0,1-2,10.27h-2.43a24.68,24.68,0,0,0,2.21-10.27,25.1,25.1,0,0,0-24.76-25,2.22,2.22,0,0,1-2.06-1.46A38.4,38.4,0,0,0,116.85,9.45a42.81,42.81,0,0,0-7.05,2.23A40.59,40.59,0,0,1,174,28.95,27.24,27.24,0,0,1,200.95,56.17Z"/><path d="M196.52,66.43h2.43a26,26,0,0,1-2,4h-2.66A23.64,23.64,0,0,0,196.52,66.43Z"/><path d="M194.26,70.43h2.66a27.15,27.15,0,0,1-6.43,7.19,27.35,27.35,0,0,0,1.86-4.77A25.1,25.1,0,0,0,194.26,70.43Z"/><path class="cls-4" d="M198.73,56.17a24.68,24.68,0,0,1-2.21,10.27h-3c0-.61.06-1.22.06-1.83A29.56,29.56,0,0,0,165.9,35.22a42.89,42.89,0,0,0-49-25.77A38.4,38.4,0,0,1,171.91,29.7,2.22,2.22,0,0,0,174,31.16,25.1,25.1,0,0,1,198.73,56.17Z"/><path d="M196.62,491.43v6q0,7.34-4.48,11.35t-13.49,4q-9,0-13.6-4t-4.61-11.35V453.6q0-7.34,4.5-11.34t13.49-4q9,0,13.6,4t4.6,11.34v24.12h-28.5v19.73q0,8.77,10.42,8.77t10.41-8.77v-6Zm-7.67-20.29V453.6q0-8.77-10.41-8.77t-10.42,8.77v17.54Z"/><path class="cls-4" d="M193.47,66.43h3a23.64,23.64,0,0,1-2.26,4H193A31.55,31.55,0,0,0,193.47,66.43Z"/><path class="cls-4" d="M193,70.43h1.31a25.1,25.1,0,0,1-1.92,2.41A24.82,24.82,0,0,0,193,70.43Z"/><path class="cls-4" d="M193.53,64.61c0,.61,0,1.22-.06,1.83h-2.23q.07-.91.07-1.83a27.24,27.24,0,0,0-27-27.23,40.6,40.6,0,0,0-53.45-23.74,37.9,37.9,0,0,1,5.95-4.19,42.89,42.89,0,0,1,49,25.77A29.56,29.56,0,0,1,193.53,64.61Z"/><path class="cls-4" d="M191.25,66.43h2.23a31.55,31.55,0,0,1-.52,4h-2.27A26.53,26.53,0,0,0,191.25,66.43Z"/><path class="cls-4" d="M190.68,70.43H193a24.82,24.82,0,0,1-.61,2.41,24.78,24.78,0,0,1-3.59,3.3A27.12,27.12,0,0,0,190.68,70.43Z"/><path d="M188.76,76.14a24.78,24.78,0,0,0,3.59-3.3,27.35,27.35,0,0,1-1.86,4.77,26.32,26.32,0,0,1-4.15,2.68A26.77,26.77,0,0,0,188.76,76.14Z"/><path class="cls-4" d="M191.31,64.61q0,.91-.07,1.83H189c.06-.6.08-1.21.08-1.83a25.1,25.1,0,0,0-24.76-25,2.22,2.22,0,0,1-2.06-1.46,38.38,38.38,0,0,0-56.13-19.61,39,39,0,0,1,4.76-4.88,40.6,40.6,0,0,1,53.45,23.74A27.24,27.24,0,0,1,191.31,64.61Z"/><path class="cls-4" d="M189,66.43h2.23a26.53,26.53,0,0,1-.56,4h-2.27A23.85,23.85,0,0,0,189,66.43Z"/><path class="cls-4" d="M188.41,70.43h2.27a27.12,27.12,0,0,1-1.93,5.71,24.89,24.89,0,0,1-3.92,2.43A25.24,25.24,0,0,0,188.41,70.43Z"/><path class="cls-4" d="M189.1,64.61c0,.62,0,1.23-.08,1.83H112a26.15,26.15,0,0,0-7.4,1A15.6,15.6,0,0,0,99.2,70L73.46,91.77a13.12,13.12,0,0,1-1.58-21.24,2.23,2.23,0,0,0,.43-2.89,32.93,32.93,0,0,1,1.21-37,27.38,27.38,0,0,1,20.31-2.45,2.23,2.23,0,0,0,2.3-.76,38.93,38.93,0,0,1,8-7.6,2.21,2.21,0,0,0,1.59-.83c.12-.16.24-.31.38-.45a38.38,38.38,0,0,1,56.13,19.61,2.22,2.22,0,0,0,2.06,1.46A25.1,25.1,0,0,1,189.1,64.61Z"/><path class="cls-4" d="M112,66.43h77a23.85,23.85,0,0,1-.61,4H112q-7.61,0-11,3.4c-2.27,2.26-3.4,5.94-3.4,11v2.35l-.12,0A10.87,10.87,0,0,0,92,91.13a10.3,10.3,0,0,0-1.78,4,10.41,10.41,0,0,0-2.41.5,10.73,10.73,0,0,0-7.49,10.28v4.21a7.9,7.9,0,0,1-5.11-2.92,8.4,8.4,0,0,1-2.17-5.28,13.19,13.19,0,0,1,1.84-6.7,2.2,2.2,0,0,0-.84-3.07,6.82,6.82,0,0,1-.61-.37L99.2,70a15.6,15.6,0,0,1,5.39-2.6A26.15,26.15,0,0,1,112,66.43Z"/><path d="M190.48,77.62a27.69,27.69,0,0,1-2.67,4.4,29,29,0,0,1-4.68,2,25.92,25.92,0,0,0,3.2-3.77A26.32,26.32,0,0,0,190.48,77.62Z"/><path class="cls-4" d="M112,70.43h76.42a25.24,25.24,0,0,1-3.58,8.14,24.87,24.87,0,0,1-11.13,2.61c-.72,0-1.47,0-2.27-.1a2.2,2.2,0,0,0-2.41,2.2v5.84a24.37,24.37,0,0,1-5,.5c-.72,0-1.46,0-2.27-.11a2.29,2.29,0,0,0-1.69.56,2.21,2.21,0,0,0-.72,1.64v67.42A11.14,11.14,0,0,1,159,162a12.31,12.31,0,0,1-2.39,0,11.58,11.58,0,0,1-10.3-11.62V105a6.37,6.37,0,0,0-7-6.32,6.29,6.29,0,0,0-5.74,6.29v3a6.34,6.34,0,0,0-9.63,5.39v78.72a11.56,11.56,0,0,1-.35,2.83,11.35,11.35,0,0,1-12.7-11.57V95.42a7.61,7.61,0,0,0-1.66-4.55,10.35,10.35,0,0,0-8.35-4.24,10.85,10.85,0,0,0-3.32.53V84.82c0-5,1.13-8.73,3.4-11S106.92,70.43,112,70.43Z"/><path d="M188.76,76.14a26.77,26.77,0,0,1-2.43,4.15,26.34,26.34,0,0,1-4.46,1.86,24.92,24.92,0,0,0,3-3.59A24.89,24.89,0,0,0,188.76,76.14Z"/><path d="M187.81,82a29.51,29.51,0,0,1-14.36,10.5V90.19a27.14,27.14,0,0,0,9.68-6.12A29,29,0,0,0,187.81,82Z"/><path d="M186.33,80.3a25.92,25.92,0,0,1-3.2,3.77,28.7,28.7,0,0,1-5,1.21,23.8,23.8,0,0,0,3.72-3.11A26.34,26.34,0,0,0,186.33,80.3Z"/><path d="M184.84,78.57a24.92,24.92,0,0,1-3,3.59,27.28,27.28,0,0,1-8.16,1.24c-.83,0-1.66,0-2.47-.11v5.28a20.88,20.88,0,0,1-2.21.55V83.29a2.2,2.2,0,0,1,2.41-2.2c.8.07,1.55.1,2.27.1A24.87,24.87,0,0,0,184.84,78.57Z"/><path d="M181.87,82.16a23.8,23.8,0,0,1-3.72,3.11,28,28,0,0,1-4.44.34h-.25v2.17a21.89,21.89,0,0,1-2.21.79V83.29c.81.08,1.64.11,2.47.11A27.28,27.28,0,0,0,181.87,82.16Z"/><path d="M178.15,85.27a28.7,28.7,0,0,0,5-1.21,27.14,27.14,0,0,1-9.68,6.12v-2.4A23.91,23.91,0,0,0,178.15,85.27Z"/><path d="M173.71,85.61a28,28,0,0,0,4.44-.34,23.91,23.91,0,0,1-4.7,2.51V85.61Z"/><path d="M173.45,92.51v58.19a15.81,15.81,0,0,1-11.12,15.08,15.58,15.58,0,0,0,1-2.75,13.58,13.58,0,0,0,7.92-12.34V93.17C172,93,172.73,92.77,173.45,92.51Z"/><path d="M173.45,90.19v2.33c-.72.25-1.46.47-2.21.65V90.88C172,90.68,172.73,90.44,173.45,90.19Z"/><path d="M173.45,87.78v2.4c-.72.25-1.46.5-2.21.7V88.57A21.89,21.89,0,0,0,173.45,87.78Z"/><path d="M171.24,93.17v57.54A13.58,13.58,0,0,1,163.32,163a15.53,15.53,0,0,0,.45-2.77,10.81,10.81,0,0,0,1.56-1.2,11.4,11.4,0,0,0,3.69-8.37V93.62A21.21,21.21,0,0,0,171.24,93.17Z"/><path d="M171.24,90.88v2.28a21.21,21.21,0,0,1-2.21.45V91.38C169.78,91.25,170.51,91.08,171.24,90.88Z"/><path d="M171.24,88.57v2.31c-.73.2-1.46.37-2.21.5V89.12A20.88,20.88,0,0,0,171.24,88.57Z"/><path class="cls-4" d="M169,93.62v57.09a11.4,11.4,0,0,1-3.69,8.37,10.81,10.81,0,0,1-1.56,1.2c0-.38,0-.76,0-1.14V94.05h.25A28.09,28.09,0,0,0,169,93.62Z"/><path class="cls-4" d="M169,91.38v2.24a28.09,28.09,0,0,1-5,.43h-.25v65.08c0,.38,0,.76,0,1.14a10.19,10.19,0,0,1-2.37,1.15,13,13,0,0,0,.2-2.29V91.71c.81.08,1.64.12,2.47.12A27,27,0,0,0,169,91.38Z"/><path class="cls-4" d="M169,89.12v2.26a27,27,0,0,1-5,.45c-.83,0-1.66,0-2.47-.12v67.42a13,13,0,0,1-.2,2.29A10.79,10.79,0,0,1,159,162a11.14,11.14,0,0,0,.37-2.85V91.71a2.21,2.21,0,0,1,.72-1.64,2.29,2.29,0,0,1,1.69-.56c.81.08,1.55.11,2.27.11A24.37,24.37,0,0,0,169,89.12Z"/><path d="M163.77,160.27a15.53,15.53,0,0,1-.45,2.77,12.88,12.88,0,0,1-2.58.87,13.31,13.31,0,0,0,.66-2.49A10.19,10.19,0,0,0,163.77,160.27Z"/><path d="M163.32,163a15.58,15.58,0,0,1-1,2.75,14.21,14.21,0,0,1-2.82.59,14.16,14.16,0,0,0,1.23-2.46A12.88,12.88,0,0,0,163.32,163Z"/><path d="M161.4,161.43a13.31,13.31,0,0,1-.66,2.49,13.16,13.16,0,0,1-2.58.34A11.53,11.53,0,0,0,159,162,10.79,10.79,0,0,0,161.4,161.43Z"/><path d="M159.51,166.38a14.21,14.21,0,0,0,2.82-.59,15.75,15.75,0,0,1-15.73,9.06,15.45,15.45,0,0,1-8.56-3.59v-3a13.3,13.3,0,0,0,8.76,4.43A13.58,13.58,0,0,0,159.51,166.38Z"/><path d="M160.74,163.92a14.16,14.16,0,0,1-1.23,2.46,15.71,15.71,0,0,1-2.8.08,11.94,11.94,0,0,0,1.45-2.19A13.16,13.16,0,0,0,160.74,163.92Z"/><path d="M159,162a11.53,11.53,0,0,1-.86,2.28,12.74,12.74,0,0,1-1.72,0,13.76,13.76,0,0,1-12.33-13.82V105a4.14,4.14,0,0,0-4.52-4.12h0a4.1,4.1,0,0,0-3.72,4.09v5.29a6.17,6.17,0,0,0-1.22-1.52,5.82,5.82,0,0,0-1-.74v-3a6.29,6.29,0,0,1,5.74-6.29,6.37,6.37,0,0,1,7,6.32v45.4A11.58,11.58,0,0,0,156.63,162,12.31,12.31,0,0,0,159,162Z"/><path d="M156.71,166.45a15.71,15.71,0,0,0,2.8-.08,13.58,13.58,0,0,1-12.7,6.27,13.3,13.3,0,0,1-8.76-4.43v-3.89a11.23,11.23,0,0,0,17.65,3.18A12.88,12.88,0,0,0,156.71,166.45Z"/><path d="M156.44,164.22a12.74,12.74,0,0,0,1.72,0,11.94,11.94,0,0,1-1.45,2.19l-.47,0a16,16,0,0,1-14.34-16V105a1.94,1.94,0,0,0-2.1-1.92A1.88,1.88,0,0,0,138,105v59.37a11.69,11.69,0,0,1-1.36-5.49v-45.4a6.39,6.39,0,0,0-.85-3.18V105a4.1,4.1,0,0,1,3.72-4.09h0a4.14,4.14,0,0,1,4.52,4.12v45.4A13.76,13.76,0,0,0,156.44,164.22Z"/><path d="M156.24,166.42l.47,0a12.88,12.88,0,0,1-1,1.05A11.23,11.23,0,0,1,138,164.33V105a1.88,1.88,0,0,1,1.75-1.88,1.94,1.94,0,0,1,2.1,1.92v45.4A16,16,0,0,0,156.24,166.42Z"/><path d="M141.8,491.43v6q0,7.34-4.48,11.35t-13.49,4q-9,0-13.6-4t-4.61-11.35V453.6q0-7.34,4.5-11.34t13.49-4q9,0,13.6,4t4.6,11.34v24.12H113.3v19.73q0,8.77,10.42,8.77t10.41-8.77v-6Zm-7.67-20.29V453.6q0-8.77-10.41-8.77T113.3,453.6v17.54Z"/><path d="M138,171.26v12.43a15.81,15.81,0,0,1-11.12,15.08,15.58,15.58,0,0,0,1-2.75,13.58,13.58,0,0,0,7.92-12.34V169A16.59,16.59,0,0,0,138,171.26Z"/><path d="M138,168.21v3a16.59,16.59,0,0,1-2.21-2.28v-4.1A14.09,14.09,0,0,0,138,168.21Z"/><path d="M138,164.33v3.89a14.09,14.09,0,0,1-2.21-3.33V110.25a6.39,6.39,0,0,1,.85,3.18v45.4A11.69,11.69,0,0,0,138,164.33Z"/><path d="M135.83,169v14.71A13.58,13.58,0,0,1,127.92,196a15.41,15.41,0,0,0,.45-2.76,11.54,11.54,0,0,0,1.56-1.21,11.36,11.36,0,0,0,3.69-8.37V165.33A15.86,15.86,0,0,0,135.83,169Z"/><path d="M135.83,164.88V169a15.86,15.86,0,0,1-2.21-3.64V110.92a4.12,4.12,0,0,1,.85,2.51v45.4A14.06,14.06,0,0,0,135.83,164.88Z"/><path d="M135.83,110.25v54.63a14.06,14.06,0,0,1-1.36-6v-45.4a4.12,4.12,0,0,0-.85-2.51V108a5.82,5.82,0,0,1,1,.74A6.17,6.17,0,0,1,135.83,110.25Z"/><path class="cls-4" d="M133.62,165.33v18.35a11.36,11.36,0,0,1-3.69,8.37,11.54,11.54,0,0,1-1.56,1.21c0-.39,0-.76,0-1.15V113.39a1.89,1.89,0,0,1,1.75-1.88,1.92,1.92,0,0,1,2.09,1.93v45.4A16.15,16.15,0,0,0,133.62,165.33Z"/><path class="cls-4" d="M133.62,110.92v54.42a16.15,16.15,0,0,1-1.36-6.5v-45.4a1.92,1.92,0,0,0-2.09-1.93,1.89,1.89,0,0,0-1.75,1.88v78.72c0,.39,0,.76,0,1.15a11.16,11.16,0,0,1-2.37,1.15,13.1,13.1,0,0,0,.2-2.3V113.39a4.09,4.09,0,0,1,3.72-4.08h0A4.1,4.1,0,0,1,133.62,110.92Z"/><path class="cls-4" d="M133.62,108v2.92A4.1,4.1,0,0,0,130,109.3h0a4.09,4.09,0,0,0-3.72,4.08v78.72a13.1,13.1,0,0,1-.2,2.3,11.48,11.48,0,0,1-2.37.53,11.56,11.56,0,0,0,.35-2.83V113.39a6.34,6.34,0,0,1,9.63-5.39Z"/><path d="M128.37,193.26a15.41,15.41,0,0,1-.45,2.76,12.88,12.88,0,0,1-2.58.87,13.2,13.2,0,0,0,.66-2.48A11.16,11.16,0,0,0,128.37,193.26Z"/><path d="M127.92,196a15.58,15.58,0,0,1-1,2.75,14.38,14.38,0,0,1-2.82.59,14.16,14.16,0,0,0,1.23-2.46A12.88,12.88,0,0,0,127.92,196Z"/><path d="M126,194.41a13.2,13.2,0,0,1-.66,2.48,13.16,13.16,0,0,1-2.58.34,11.25,11.25,0,0,0,.87-2.29A11.48,11.48,0,0,0,126,194.41Z"/><path d="M124.11,199.35a14.38,14.38,0,0,0,2.82-.59,15.75,15.75,0,0,1-14.27,9.12c-.48,0-1,0-1.45-.07a15.9,15.9,0,0,1-13.61-11.2V100.3l.27.33a5.48,5.48,0,0,1,1.22,3.22v88a13.75,13.75,0,0,0,12.33,13.81A13.58,13.58,0,0,0,124.11,199.35Z"/><path d="M125.34,196.9a14.16,14.16,0,0,1-1.23,2.46,14.15,14.15,0,0,1-1.82.11c-.32,0-.65,0-1,0a10.91,10.91,0,0,0,1.45-2.19A13.16,13.16,0,0,0,125.34,196.9Z"/><path d="M123.63,194.95a11.25,11.25,0,0,1-.87,2.29,12.74,12.74,0,0,1-1.72,0,13.76,13.76,0,0,1-12.33-13.82V95.42a5.44,5.44,0,0,0-1.22-3.23,8.23,8.23,0,0,0-9.9-2.68V87.16a10.85,10.85,0,0,1,3.32-.53,10.35,10.35,0,0,1,8.35,4.24,7.61,7.61,0,0,1,1.66,4.55v87.95a11.35,11.35,0,0,0,12.7,11.57Z"/><path d="M122.29,199.46a14.15,14.15,0,0,0,1.82-.11,13.58,13.58,0,0,1-12.7,6.27,13.75,13.75,0,0,1-12.33-13.81v-88a5.48,5.48,0,0,0-1.22-3.22l-.27-.33V97.22a10.39,10.39,0,0,1,2,2.08,7.64,7.64,0,0,1,1.66,4.55v88a11.58,11.58,0,0,0,10.31,11.61,11.33,11.33,0,0,0,9.7-4C121.64,199.45,122,199.46,122.29,199.46Z"/><path d="M121,197.19a12.74,12.74,0,0,0,1.72,0,10.91,10.91,0,0,1-1.45,2.19l-.47,0a16,16,0,0,1-14.34-16V95.42a3.3,3.3,0,0,0-.79-1.9,6,6,0,0,0-6.84-2.12A6.53,6.53,0,0,0,97.6,92V89.51a8.23,8.23,0,0,1,9.9,2.68,5.44,5.44,0,0,1,1.22,3.23v87.95A13.76,13.76,0,0,0,121,197.19Z"/><path d="M120.84,199.4l.47,0a11.33,11.33,0,0,1-9.7,4,11.58,11.58,0,0,1-10.31-11.61v-88a7.64,7.64,0,0,0-1.66-4.55,10.39,10.39,0,0,0-2-2.08V92a6.53,6.53,0,0,1,1.27-.59,6,6,0,0,1,6.84,2.12,3.3,3.3,0,0,1,.79,1.9v87.95A16,16,0,0,0,120.84,199.4Z"/><path d="M116.85,9.45a37.9,37.9,0,0,0-5.95,4.19,38.76,38.76,0,0,0-6.26,3.21,40.57,40.57,0,0,1,5.15-5.17A42.81,42.81,0,0,1,116.85,9.45Z"/><path d="M104.65,16.84a38.76,38.76,0,0,1,6.26-3.21,39,39,0,0,0-4.76,4.88c-.68.4-1.33.83-2,1.28a2.2,2.2,0,0,1-.71-.07q-1.1-.3-2.23-.5c.78-.61,1.58-1.2,2.41-1.75l.39.1C104.24,17.33,104.44,17.09,104.65,16.84Z"/><path d="M103.21,15.1a43.27,43.27,0,0,1,6.59-3.43,40.57,40.57,0,0,0-5.15,5.17l-1,.64a27.14,27.14,0,0,0-3-.6C101.48,16.26,102.33,15.67,103.21,15.1Z"/><path d="M106.14,18.52c-.13.14-.25.3-.38.45a2.21,2.21,0,0,1-1.59.83C104.82,19.35,105.47,18.91,106.14,18.52Z"/><path d="M104.65,16.84c-.21.24-.41.49-.61.74l-.39-.1Z"/><path class="cls-4" d="M103.46,19.73a2.2,2.2,0,0,0,.71.07,38.93,38.93,0,0,0-8,7.6,2.23,2.23,0,0,1-2.3.76,27.38,27.38,0,0,0-20.31,2.45,29.44,29.44,0,0,1,3.52-4A29.17,29.17,0,0,1,86.7,25a29.61,29.61,0,0,1,7.71,1,41.28,41.28,0,0,1,6.83-6.79Q102.37,19.43,103.46,19.73Z"/><path d="M103.65,17.49c-.83.55-1.64,1.14-2.41,1.75a25.18,25.18,0,0,0-3-.39q1.18-1,2.43-2A27.14,27.14,0,0,1,103.65,17.49Z"/><path d="M103.21,15.1c-.87.56-1.73,1.15-2.56,1.78a29.26,29.26,0,0,0-4.32-.32,30.12,30.12,0,0,0-20.5,8.14,32.27,32.27,0,0,0-5.27,2.48A32.76,32.76,0,0,1,96.33,14.35,31.91,31.91,0,0,1,103.21,15.1Z"/><path class="cls-4" d="M98.23,18.85a25.18,25.18,0,0,1,3,.39A41.28,41.28,0,0,0,94.41,26a29.61,29.61,0,0,0-7.71-1A29.17,29.17,0,0,0,77,26.63a29.26,29.26,0,0,1,4.29-3.39,32.13,32.13,0,0,1,12.25.29A41.3,41.3,0,0,1,98.23,18.85Z"/><path d="M100.65,16.89q-1.25.91-2.43,2-.95-.07-1.89-.07a27.53,27.53,0,0,0-15,4.46,31.58,31.58,0,0,0-5.49,1.46,30.12,30.12,0,0,1,20.5-8.14A29.26,29.26,0,0,1,100.65,16.89Z"/><path d="M97.6,100.3v96.33a16.16,16.16,0,0,1-.73-4.82v-88a3.33,3.33,0,0,0-.79-1.9,6.1,6.1,0,0,0-1.66-1.56V97.89A8.2,8.2,0,0,1,97.6,100.3Z"/><path d="M97.6,97.22v3.08a8.2,8.2,0,0,0-3.18-2.4v-.42a6.33,6.33,0,0,1,.27-1.83A10,10,0,0,1,97.6,97.22Z"/><path d="M97.6,92v5.23a10,10,0,0,0-2.91-1.57A6.27,6.27,0,0,1,97.6,92Z"/><path d="M97.6,89.51V92a6.27,6.27,0,0,0-2.91,3.65,11.24,11.24,0,0,0-2.17-.51A8.54,8.54,0,0,1,97.6,89.51Z"/><path d="M97.6,87.16v2.35a8.54,8.54,0,0,0-5.08,5.63,11.43,11.43,0,0,0-1.23-.07,8,8,0,0,0-1,.06,10.3,10.3,0,0,1,1.78-4,10.87,10.87,0,0,1,5.44-3.93Z"/><path class="cls-4" d="M96.33,18.78q.95,0,1.89.07a41.3,41.3,0,0,0-4.65,4.68,32.13,32.13,0,0,0-12.25-.29A27.53,27.53,0,0,1,96.33,18.78Z"/><path d="M94.68,95.65a6.33,6.33,0,0,0-.27,1.83v.42a8.69,8.69,0,0,0-2.21-.56,8.73,8.73,0,0,1,.31-2.19A11.24,11.24,0,0,1,94.68,95.65Z"/><path d="M94.42,100.39v1.44a12.74,12.74,0,0,1-8.62,12,13.47,13.47,0,0,1-1.71.48,11.15,11.15,0,0,0,.56-2.44,10.5,10.5,0,0,0,7.54-10.09V99.57A5.57,5.57,0,0,1,94.42,100.39Z"/><path d="M94.42,97.89v2.49a5.57,5.57,0,0,0-2.21-.82V97.33A8.69,8.69,0,0,1,94.42,97.89Z"/><path d="M92.51,95.14a8.73,8.73,0,0,0-.31,2.19,8.72,8.72,0,0,0-2.21.06,10.87,10.87,0,0,1,.27-2.26,8,8,0,0,1,1-.06A11.43,11.43,0,0,1,92.51,95.14Z"/><path d="M92.2,97.33v2.24a6.42,6.42,0,0,0-2.21.07V97.38A8.72,8.72,0,0,1,92.2,97.33Z"/><path d="M92.2,99.57v2.26a10.5,10.5,0,0,1-7.54,10.09,11.73,11.73,0,0,0,.12-1.66v-.73A8.24,8.24,0,0,0,90,101.8V99.63A6.42,6.42,0,0,1,92.2,99.57Z"/><path class="cls-4" d="M90.25,95.13A10.87,10.87,0,0,0,90,97.38a8.6,8.6,0,0,0-7.42,8.52v4.21a7.81,7.81,0,0,1-2.21,0V105.9a10.73,10.73,0,0,1,7.49-10.28A10.41,10.41,0,0,1,90.25,95.13Z"/><path class="cls-4" d="M82.57,105.9A8.6,8.6,0,0,1,90,97.38v2.25a7.47,7.47,0,0,0-.75.2,6.38,6.38,0,0,0-4.45,6.08v3.61l-.45.18a8.71,8.71,0,0,1-1.76.41Z"/><path class="cls-4" d="M90,99.63v2.17a8.24,8.24,0,0,1-5.2,7.72v-3.61a6.38,6.38,0,0,1,4.45-6.08A7.47,7.47,0,0,1,90,99.63Z"/><path d="M87,485.95v9.87c0,4.89-1.47,8.67-4.39,11.34s-7.28,4-13.06,4H51.91V439.9H68.46q8.55,0,13,4.05t4.44,11.3v6.58q0,9.32-7.79,11.95Q87,476.19,87,485.95Zm-7.67,9.87v-9.87a9.37,9.37,0,0,0-2.64-6.41,9.14,9.14,0,0,0-7.13-2.91h-10v28h10A9.71,9.71,0,0,0,76.74,502,8.44,8.44,0,0,0,79.32,495.82Zm-1.1-34v-6.58a8.54,8.54,0,0,0-2.58-6.15,9.6,9.6,0,0,0-7.19-2.62H59.59v24.66h8.87a9.2,9.2,0,0,0,7.19-2.85A9.42,9.42,0,0,0,78.23,461.83Z"/><path d="M84.78,109.52v.73a11.73,11.73,0,0,1-.12,1.66,11,11,0,0,1-2.31.45,10.15,10.15,0,0,0,.22-2.12v-.14a8.71,8.71,0,0,0,1.76-.41Z"/><path d="M84.66,111.91a11.15,11.15,0,0,1-.56,2.44,12.5,12.5,0,0,1-2.47.28,10.15,10.15,0,0,0,.72-2.26A11,11,0,0,0,84.66,111.91Z"/><path d="M84.1,114.35a12.69,12.69,0,0,1-7.93,8,12.48,12.48,0,0,1-14-3.89A12.65,12.65,0,0,1,59,110.34a17.55,17.55,0,0,1,1.47-7,4.34,4.34,0,0,1-.35-.28l1.74-1.47a14.33,14.33,0,0,0,1.51,1,15.26,15.26,0,0,0-2.15,7.83A10.64,10.64,0,0,0,63.9,117c5.19,6.37,14.72,4.23,17.73-2.39A12.5,12.5,0,0,0,84.1,114.35Z"/><path d="M82.57,110.11v.14a10.15,10.15,0,0,1-.22,2.12,10.16,10.16,0,0,1-2.25-.06,8.22,8.22,0,0,0,.25-2.07v-.13A7.81,7.81,0,0,0,82.57,110.11Z"/><path d="M80.1,112.31a10.16,10.16,0,0,0,2.25.06,10.15,10.15,0,0,1-.72,2.26,14.1,14.1,0,0,1-2.38-.2A7.84,7.84,0,0,0,80.1,112.31Z"/><path d="M79.25,114.43a14.1,14.1,0,0,0,2.38.2c-3,6.62-12.54,8.76-17.73,2.39a10.64,10.64,0,0,1-2.67-6.68,15.26,15.26,0,0,1,2.15-7.83,14.33,14.33,0,0,1-1.51-1l1.76-1.47c.25.17.53.32.81.48a2.22,2.22,0,0,1,.84,3.08,13.16,13.16,0,0,0-1.84,6.7,8.39,8.39,0,0,0,2.17,5.27,8,8,0,0,0,9.08,2.51A8.59,8.59,0,0,0,79.25,114.43Z"/><path d="M80.35,110.11v.13a8.22,8.22,0,0,1-.25,2.07,10.1,10.1,0,0,1-6.57-3.73,10.59,10.59,0,0,1-2.67-6.68A15.29,15.29,0,0,1,73,94.07a12.2,12.2,0,0,1-1.31-.81l1.76-1.49a6.82,6.82,0,0,0,.61.37,2.2,2.2,0,0,1,.84,3.07,13.19,13.19,0,0,0-1.84,6.7,8.4,8.4,0,0,0,2.17,5.28A7.9,7.9,0,0,0,80.35,110.11Z"/><path d="M80.1,112.31a7.84,7.84,0,0,1-.85,2.12A12.52,12.52,0,0,1,71.81,110a12.67,12.67,0,0,1-3.17-8.08,17.63,17.63,0,0,1,1.47-7,1.74,1.74,0,0,1-.17-.13l1.75-1.47a12.2,12.2,0,0,0,1.31.81,15.29,15.29,0,0,0-2.15,7.83,10.59,10.59,0,0,0,2.67,6.68A10.1,10.1,0,0,0,80.1,112.31Z"/><path d="M79.25,114.43a8.59,8.59,0,0,1-4.55,3.7,8,8,0,0,1-9.08-2.51,8.39,8.39,0,0,1-2.17-5.27,13.16,13.16,0,0,1,1.84-6.7,2.22,2.22,0,0,0-.84-3.08c-.28-.16-.55-.31-.81-.48L70,94.74a1.74,1.74,0,0,0,.17.13,17.63,17.63,0,0,0-1.47,7A12.67,12.67,0,0,0,71.81,110,12.52,12.52,0,0,0,79.25,114.43Z"/><path d="M81.33,23.24A29.26,29.26,0,0,0,77,26.63a29.85,29.85,0,0,0-5,2.27,32.9,32.9,0,0,1,3.83-4.2A31.58,31.58,0,0,1,81.33,23.24Z"/><path d="M77,26.63a29.44,29.44,0,0,0-3.52,4A27.69,27.69,0,0,0,69,33.68a33.74,33.74,0,0,1,3-4.77A29.85,29.85,0,0,1,77,26.63Z"/><path d="M75.83,24.71A32.9,32.9,0,0,0,72,28.9a30.25,30.25,0,0,0-4.74,3.3,35.65,35.65,0,0,1,3.3-5A32.27,32.27,0,0,1,75.83,24.71Z"/><path d="M73.46,91.77,71.7,93.27a15.34,15.34,0,0,1-1.25-24.43A35.24,35.24,0,0,1,69,33.68a27.69,27.69,0,0,1,4.54-3.07,32.93,32.93,0,0,0-1.21,37,2.23,2.23,0,0,1-.43,2.89,13.12,13.12,0,0,0,1.58,21.24Z"/><path d="M71.7,93.27,70,94.74a17.53,17.53,0,0,1-7.19-14.16,17.56,17.56,0,0,1,4.86-12.13A37,37,0,0,1,62.77,50a37.53,37.53,0,0,1,2-12A29.76,29.76,0,0,1,69,33.68a35.24,35.24,0,0,0,1.47,35.16A15.34,15.34,0,0,0,71.7,93.27Z"/><path d="M70,94.74l-6.32,5.35A13.14,13.14,0,0,1,62.25,79,2.25,2.25,0,0,0,63,77.73h0a17.32,17.32,0,0,0-.23,2.85A17.53,17.53,0,0,0,70,94.74Z"/><path d="M60.8,150.62A12.18,12.18,0,0,1,65.69,174,12.08,12.08,0,0,0,68,169.64a10,10,0,0,0-7.23-16.81H42v-2.21Z"/><path d="M60.8,321.7A12.18,12.18,0,0,1,65.69,345,12.08,12.08,0,0,0,68,340.72a10,10,0,0,0-7.23-16.81H43.07c-.35,0-.7,0-1-.06v-2.24a6.49,6.49,0,0,0,1,.08Z"/><path d="M72,28.9a33.74,33.74,0,0,0-3,4.77A29.76,29.76,0,0,0,64.74,38a36.59,36.59,0,0,1,2.52-5.75A30.25,30.25,0,0,1,72,28.9Z"/><path class="cls-1" d="M68.55,162.8a7.11,7.11,0,0,1-.14,1.46,12.21,12.21,0,0,0-6.85-9.17A7.75,7.75,0,0,1,68.55,162.8Z"/><path d="M68.4,164.26a7.11,7.11,0,0,0,.14-1.46,7.75,7.75,0,0,0-7-7.71,12.12,12.12,0,0,0-5.18-1.15H42v-1.11H60.8A10,10,0,0,1,68,169.64a12,12,0,0,0,.52-3.52,11.37,11.37,0,0,0-.14-1.85Z"/><path class="cls-1" d="M68.55,333.88a7.22,7.22,0,0,1-.14,1.47,12.21,12.21,0,0,0-6.85-9.18A7.75,7.75,0,0,1,68.55,333.88Z"/><path d="M68.4,335.35a7.22,7.22,0,0,0,.14-1.47,7.75,7.75,0,0,0-7-7.71A12.12,12.12,0,0,0,56.37,325H42v-1.16c.34,0,.69.06,1,.06H60.8A10,10,0,0,1,68,340.72a12,12,0,0,0,.52-3.52,11.23,11.23,0,0,0-.14-1.84Z"/><path d="M68.4,164.27a11.37,11.37,0,0,1,.14,1.85,12,12,0,0,1-.52,3.52,9.75,9.75,0,0,1-3.71,2.47,10,10,0,0,0,1.74-3.63A7.71,7.71,0,0,0,68.4,164.27Z"/><path d="M68.4,335.36a11.23,11.23,0,0,1,.14,1.84,12,12,0,0,1-.52,3.52,9.75,9.75,0,0,1-3.71,2.47,10,10,0,0,0,1.74-3.63A7.68,7.68,0,0,0,68.4,335.36Z"/><path class="cls-1" d="M68.4,164.26h0a7.71,7.71,0,0,1-2.35,4.21,10.34,10.34,0,0,0,.28-2.36,10,10,0,0,0-10-10H42V155H60.8a5.62,5.62,0,0,1,.75,0A12.21,12.21,0,0,1,68.4,164.26Z"/><path class="cls-1" d="M68.4,335.35h0a7.68,7.68,0,0,1-2.35,4.2,10.27,10.27,0,0,0,.28-2.36,10,10,0,0,0-10-10H42v-1.15c.34,0,.69,0,1,0H60.8a5.62,5.62,0,0,1,.75,0A12.21,12.21,0,0,1,68.4,335.35Z"/><path d="M64.32,172.11A9.75,9.75,0,0,0,68,169.64,12.08,12.08,0,0,1,65.69,174a12.19,12.19,0,0,1-4.76,1A9.76,9.76,0,0,0,64.32,172.11Z"/><path d="M64.32,343.19A9.75,9.75,0,0,0,68,340.72,12.08,12.08,0,0,1,65.69,345a12.19,12.19,0,0,1-4.76,1A9.76,9.76,0,0,0,64.32,343.19Z"/><path d="M70.56,27.19a35.65,35.65,0,0,0-3.3,5A34.18,34.18,0,0,0,55.35,58.42a34.7,34.7,0,0,0,5.47,18.85,15.34,15.34,0,0,0,1.05,24.3L60.13,103A17.55,17.55,0,0,1,58,76.89a37,37,0,0,1-4.86-18.47A36,36,0,0,1,70.56,27.19Z"/><path class="cls-1" d="M66.33,166.12a10.34,10.34,0,0,1-.28,2.36,7.59,7.59,0,0,1-3.15,1.77,7.65,7.65,0,0,0,1.21-4.13,7.76,7.76,0,0,0-7.75-7.75H42v-2.21H56.37A10,10,0,0,1,66.33,166.12Z"/><path class="cls-1" d="M66.33,337.2a10.27,10.27,0,0,1-.28,2.36,7.71,7.71,0,0,1-3.15,1.77,7.65,7.65,0,0,0,1.21-4.13,7.76,7.76,0,0,0-7.75-7.75H42v-2.21H56.37a10,10,0,0,1,10,10Z"/><path d="M55.35,58.42A34.18,34.18,0,0,1,67.26,32.2,36.59,36.59,0,0,0,64.74,38a32.88,32.88,0,0,0-2.06,38.12,2.22,2.22,0,0,1,.3,1.66A2.25,2.25,0,0,1,62.25,79a13.14,13.14,0,0,0,1.38,21.13l-1.76,1.47a15.34,15.34,0,0,1-1.05-24.3A34.7,34.7,0,0,1,55.35,58.42Z"/><path d="M65.69,174a12.16,12.16,0,0,1-9.32,4.35H42v-2.21H56.37A9.85,9.85,0,0,0,60.93,175,12.19,12.19,0,0,0,65.69,174Z"/><path d="M65.69,345a12.16,12.16,0,0,1-9.32,4.35H42v-2.21H56.37a9.85,9.85,0,0,0,4.56-1.11A12.19,12.19,0,0,0,65.69,345Z"/><path d="M67.63,68.45A17.47,17.47,0,0,0,63,77.73h0a2.22,2.22,0,0,0-.3-1.66A32.88,32.88,0,0,1,64.74,38a37.53,37.53,0,0,0-2,12A37,37,0,0,0,67.63,68.45Z"/><path d="M66.06,168.48a10,10,0,0,1-1.74,3.63,9.75,9.75,0,0,1-3.52.65h-.44a7.51,7.51,0,0,0,2.56-2.51A7.59,7.59,0,0,0,66.06,168.48Z"/><path d="M66.06,339.56a10,10,0,0,1-1.74,3.63,9.75,9.75,0,0,1-3.52.65h-.47a7.47,7.47,0,0,0,2.58-2.51A7.71,7.71,0,0,0,66.06,339.56Z"/><path d="M64.32,172.11A9.76,9.76,0,0,1,60.93,175H43.07a6.49,6.49,0,0,0-1,.08v-1.18H56.37a7.62,7.62,0,0,0,4-1.11h.44A9.75,9.75,0,0,0,64.32,172.11Z"/><path d="M64.32,343.19a9.76,9.76,0,0,1-3.39,2.87H42V345H56.37a7.57,7.57,0,0,0,4-1.11h.47A9.75,9.75,0,0,0,64.32,343.19Z"/><path class="cls-1" d="M64.12,166.12a7.65,7.65,0,0,1-1.21,4.13,7.45,7.45,0,0,1-2.12.3H43.07c-.35,0-.7,0-1,0V158.37H56.37A7.76,7.76,0,0,1,64.12,166.12Z"/><path class="cls-1" d="M64.12,337.2a7.65,7.65,0,0,1-1.21,4.13,7.45,7.45,0,0,1-2.12.3H42V329.45H56.37A7.76,7.76,0,0,1,64.12,337.2Z"/><path d="M62.91,170.25a7.51,7.51,0,0,1-2.56,2.51H43.07c-.35,0-.7,0-1,.06v-2.23c.34,0,.69,0,1,0H60.8A7.45,7.45,0,0,0,62.91,170.25Z"/><path d="M62.91,341.33a7.47,7.47,0,0,1-2.58,2.51H42v-2.21H60.8A7.45,7.45,0,0,0,62.91,341.33Z"/><path d="M61.55,155.09a5.62,5.62,0,0,0-.75,0H42v-1.11H56.37A12.12,12.12,0,0,1,61.55,155.09Z"/><path d="M61.55,326.17a5.62,5.62,0,0,0-.75,0H43.07c-.35,0-.7,0-1,0V325H56.37A12.12,12.12,0,0,1,61.55,326.17Z"/><path d="M60.8,175h.13a9.85,9.85,0,0,1-4.56,1.11H42v-1a6.49,6.49,0,0,1,1-.08Z"/><path d="M60.8,346.06h.13a9.85,9.85,0,0,1-4.56,1.11H42v-1.11Z"/><path d="M43.07,172.77H60.35a7.62,7.62,0,0,1-4,1.11H42v-1.05C42.37,172.79,42.71,172.77,43.07,172.77Z"/><path d="M42,343.85H60.33a7.57,7.57,0,0,1-4,1.11H42Z"/><path d="M42,347.17v2.21H12.18A12.2,12.2,0,0,1,0,337.2V166.12A12.21,12.21,0,0,1,7.29,155,12,12,0,0,0,5,159.28a9.89,9.89,0,0,0-2.74,6.84V337.2a10,10,0,0,0,10,10H42Z"/><path d="M42,346.06v1.11H12.18a10,10,0,0,1-10-10V166.12A9.89,9.89,0,0,1,5,159.28a11.94,11.94,0,0,0-.52,3.52V337.2a7.74,7.74,0,0,0,7,7.71,12,12,0,0,0,5.15,1.15Z"/><path d="M42,345v1.11H16.61a12,12,0,0,1-5.15-1.15,5.13,5.13,0,0,0,.72,0Z"/><path d="M42,343.85V345H12.18a5.13,5.13,0,0,1-.72,0,12.17,12.17,0,0,1-7-11V166.12a7.71,7.71,0,0,1,2.49-5.68,10.34,10.34,0,0,0-.28,2.36V333.88a10,10,0,0,0,10,10H42Z"/><path d="M42,341.63v2.21H16.61a10,10,0,0,1-10-10V162.8a10.34,10.34,0,0,1,.28-2.36,7.59,7.59,0,0,1,3.15-1.77,7.65,7.65,0,0,0-1.21,4.13V333.88a7.76,7.76,0,0,0,7.75,7.75Z"/><path class="cls-1" d="M42,329.45v12.18H16.61a7.76,7.76,0,0,1-7.75-7.75V162.8a7.65,7.65,0,0,1,1.21-4.13,7.45,7.45,0,0,1,2.12-.3H42v12.23a12.17,12.17,0,0,0-8.28,4.3,12.21,12.21,0,0,0-7.29,11.16V317.27a12.19,12.19,0,0,0,12.18,12.18Z"/><path class="cls-1" d="M42,327.24v2.21H38.64a12.19,12.19,0,0,1-12.18-12.18V186.05a12.21,12.21,0,0,1,7.29-11.16,12,12,0,0,0-2.34,4.32,9.89,9.89,0,0,0-2.74,6.84V317.27a10,10,0,0,0,10,10Z"/><path class="cls-1" d="M42,326.08v1.15H38.64a10,10,0,0,1-10-10V186.05a9.89,9.89,0,0,1,2.74-6.84,11.94,11.94,0,0,0-.52,3.52V317.27a7.75,7.75,0,0,0,7,7.71A12.07,12.07,0,0,0,42,326.08Z"/><path d="M42,325v1.06A12.07,12.07,0,0,1,37.88,325a5.62,5.62,0,0,0,.75,0Z"/><path d="M42,323.86V325H38.64a5.62,5.62,0,0,1-.75,0,12.22,12.22,0,0,1-7-11V186.05a7.71,7.71,0,0,1,2.49-5.68,10.34,10.34,0,0,0-.28,2.36V313.95A10,10,0,0,0,42,323.86Z"/><path d="M42,321.62v2.24a10,10,0,0,1-8.93-9.91V182.73a10.34,10.34,0,0,1,.28-2.36,7.55,7.55,0,0,1,3.13-1.77,7.64,7.64,0,0,0-1.2,4.13V313.95A7.74,7.74,0,0,0,42,321.62Z"/><path d="M42,176.09v2.21H38.64a7.47,7.47,0,0,0-2.13.3,7.64,7.64,0,0,1,2.57-2.51Z"/><path d="M42,175.06v1H39.08A7.55,7.55,0,0,1,42,175.06Z"/><path d="M42,173.87v1.18a7.55,7.55,0,0,0-2.95,1h-.44a9.8,9.8,0,0,0-3.52.65,9.76,9.76,0,0,1,3.39-2.87H42Z"/><path d="M42,172.82v1.05H38.5A10,10,0,0,1,42,172.82Z"/><path d="M42,170.59v2.23a10,10,0,0,0-3.52,1.05,12.19,12.19,0,0,0-4.76,1A12.17,12.17,0,0,1,42,170.59Z"/><path class="cls-1" d="M42,156.15v2.21H12.18a7.45,7.45,0,0,0-2.12.3,7.51,7.51,0,0,1,2.56-2.51H42Z"/><path class="cls-1" d="M42,155v1.11H12.62a7.62,7.62,0,0,1,4-1.11Z"/><path d="M42,153.94V155H16.61a7.62,7.62,0,0,0-4,1.11h-.44a9.75,9.75,0,0,0-3.52.65A9.76,9.76,0,0,1,12,153.94H42Z"/><path d="M42,152.83v1.11H12a9.85,9.85,0,0,1,4.56-1.11H42Z"/><path d="M42,150.62v2.21H16.61A9.85,9.85,0,0,0,12,153.94a12.39,12.39,0,0,0-4.76,1,12.18,12.18,0,0,1,9.32-4.34Z"/><path d="M38.64,176.09h.44a7.64,7.64,0,0,0-2.57,2.51,7.55,7.55,0,0,0-3.13,1.77,10,10,0,0,1,1.74-3.63A9.8,9.8,0,0,1,38.64,176.09Z"/><path d="M38.5,173.87a9.76,9.76,0,0,0-3.39,2.87,9.75,9.75,0,0,0-3.71,2.47,12,12,0,0,1,2.34-4.32A12.19,12.19,0,0,1,38.5,173.87Z"/><path class="cls-1" d="M30.89,314a12.22,12.22,0,0,0,7,11,7.75,7.75,0,0,1-7-7.71Z"/><path d="M35.12,176.74a10,10,0,0,0-1.74,3.63,7.71,7.71,0,0,0-2.49,5.68v-3.32a11.94,11.94,0,0,1,.52-3.52A9.75,9.75,0,0,1,35.12,176.74Z"/><path d="M12.18,156.15h.44a7.51,7.51,0,0,0-2.56,2.51,7.59,7.59,0,0,0-3.15,1.77,10,10,0,0,1,1.74-3.63A9.75,9.75,0,0,1,12.18,156.15Z"/><path d="M12,153.94a9.76,9.76,0,0,0-3.39,2.87A9.75,9.75,0,0,0,5,159.28,12,12,0,0,1,7.29,155,12.39,12.39,0,0,1,12,153.94Z"/><path d="M4.43,333.92a12.17,12.17,0,0,0,7,11,7.74,7.74,0,0,1-7-7.71Z"/><path d="M8.66,156.81a10,10,0,0,0-1.74,3.63,7.71,7.71,0,0,0-2.49,5.68V162.8A11.94,11.94,0,0,1,5,159.28,9.75,9.75,0,0,1,8.66,156.81Z"/></g></g></svg>